<?xml version="1.0" encoding="UTF-8"?>
<svg version="1.1" xmlns="http://www.w3.org/2000/svg" width="1080" height="1080">
<path d="M0 0 C11.11639343 0 11.11639343 0 16.43630981 0.49191284 C22.31170032 0.98752166 28.12551658 1.14206532 34.01904297 1.12939453 C35.04859604 1.13114685 36.07814911 1.13289917 37.13890076 1.13470459 C40.50668072 1.13906653 43.8744071 1.13620297 47.2421875 1.1328125 C49.61613983 1.13348768 51.99009209 1.13445948 54.36404419 1.13571167 C59.33157003 1.13718145 64.29907783 1.1350592 69.26660156 1.13037109 C75.57086584 1.12470552 81.87508723 1.12793722 88.1793499 1.13394356 C93.08361114 1.13759546 97.9878626 1.13638905 102.89212418 1.13381577 C105.21287161 1.13315759 107.53361998 1.13393517 109.8543663 1.13629532 C123.06318085 1.14677347 136.21729506 0.92086696 149.40896606 0.22628784 C163.37048551 -0.50320483 163.37048551 -0.50320483 170 0.5625 C172.78659188 0.96887798 174.38510658 0.94136163 177 0 C177.33 1.65 177.66 3.3 178 5 C179.32 4.67 180.64 4.34 182 4 C181.34 5.65 180.68 7.3 180 9 C179.34 9 178.68 9 178 9 C177.67 9.99 177.34 10.98 177 12 C176.34 12 175.68 12 175 12 C175 12.66 175 13.32 175 14 C174.34 14 173.68 14 173 14 C173 14.99 173 15.98 173 17 C170.525 17.99 170.525 17.99 168 19 C168 19.99 168 20.98 168 22 C167.34 22.33 166.68 22.66 166 23 C165.67 23.99 165.34 24.98 165 26 C162.9375 26.6875 162.9375 26.6875 161 27 C161 27.66 161 28.32 161 29 C160.01 29 159.02 29 158 29 C158 31.31 158 33.62 158 36 C155.525 36.495 155.525 36.495 153 37 C152.7834375 38.175625 152.7834375 38.175625 152.5625 39.375 C152 42 152 42 151 44 C150.01 44 149.02 44 148 44 C148 45.65 148 47.3 148 49 C147.34 49 146.68 49 146 49 C145.8453125 50.670625 145.8453125 50.670625 145.6875 52.375 C145.3471875 54.169375 145.3471875 54.169375 145 56 C144.01 56.66 143.02 57.32 142 58 C142 58.99 142 59.98 142 61 C141.125 63.04296875 141.125 63.04296875 140 65.1875 C139.443125 66.26064453 139.443125 66.26064453 138.875 67.35546875 C138.58625 67.89816406 138.2975 68.44085938 138 69 C137.34 69 136.68 69 136 69 C136 71.31 136 73.62 136 76 C135.34 76 134.68 76 134 76 C134 76.99 134 77.98 134 79 C133.34 79 132.68 79 132 79 C131.67 82.63 131.34 86.26 131 90 C130.01 90.33 129.02 90.66 128 91 C128.04125 92.010625 128.0825 93.02125 128.125 94.0625 C127.99799783 98.0630683 127.13108978 101.18257199 126 105 C126 105.9075 126 106.815 126 107.75 C126 110 126 110 124 113 C123.95833998 115.3329614 123.95833998 117.6670386 124 120 C123.67 120.99 123.34 121.98 123 123 C122.34 123 121.68 123 121 123 C121.17402344 123.55429687 121.34804688 124.10859375 121.52734375 124.6796875 C122.06848896 127.33621854 121.88725483 129.43875632 121.5625 132.125 C121.00516649 136.87997197 121.09221369 141.26975952 121.375 146.0625 C121.44460938 147.33222656 121.51421875 148.60195313 121.5859375 149.91015625 C121.72257813 150.92980469 121.85921875 151.94945312 122 153 C122.66 153.33 123.32 153.66 124 154 C124 155.32 124 156.64 124 158 C123.34 158.33 122.68 158.66 122 159 C122 159.66 122 160.32 122 161 C122.66 161 123.32 161 124 161 C125.87055949 164.15656914 126.18682784 166.35685706 126 170 C125.7226499 173.18490007 125.7226499 173.18490007 128 176 C128.165 177.175625 128.33 178.35125 128.5 179.5625 C128.65847757 183.0571192 128.65847757 183.0571192 131 185 C131.125 188.125 131.125 188.125 131 191 C131.66 191.33 132.32 191.66 133 192 C132.67 192.99 132.34 193.98 132 195 C132.66 195.33 133.32 195.66 134 196 C134 196.99 134 197.98 134 199 C134.66 199 135.32 199 136 199 C136 201.31 136 203.62 136 206 C136.66 206 137.32 206 138 206 C138.33 208.31 138.66 210.62 139 213 C140.32 213.33 141.64 213.66 143 214 C145.125 220.75 145.125 220.75 144 223 C145.32 223.33 146.64 223.66 148 224 C148 225.32 148 226.64 148 228 C148.99 228.33 149.98 228.66 151 229 C151 229.66 151 230.32 151 231 C151.66 231 152.32 231 153 231 C153 232.65 153 234.3 153 236 C153.66 236 154.32 236 155 236 C155 236.66 155 237.32 155 238 C155.99 238.33 156.98 238.66 158 239 C158 240.32 158 241.64 158 243 C158.99 243 159.98 243 161 243 C161 243.66 161 244.32 161 245 C161.66 245 162.32 245 163 245 C163 245.99 163 246.98 163 248 C163.66 248 164.32 248 165 248 C168 253.75 168 253.75 168 256 C168.66 256 169.32 256 170 256 C173 259.46153846 173 259.46153846 173 262 C173.99 262 174.98 262 176 262 C176.33 262.66 176.66 263.32 177 264 C177.99 264.33 178.98 264.66 180 265 C181.6875 266.3125 181.6875 266.3125 183 268 C183 269.32 183 270.64 183 272 C178.71 272 174.42 272 170 272 C170 272.66 170 273.32 170 274 C168.27185839 274.19672365 166.54240803 274.38196799 164.8125 274.5625 C163.84957031 274.66691406 162.88664063 274.77132813 161.89453125 274.87890625 C159.05766623 274.99758751 156.74576329 274.67765639 154 274 C154 273.34 154 272.68 154 272 C104.5 272 55 272 4 272 C4 272.66 4 273.32 4 274 C3.01 274 2.02 274 1 274 C0.896875 273.360625 0.79375 272.72125 0.6875 272.0625 C0.460625 271.381875 0.23375 270.70125 0 270 C-0.99 269.67 -1.98 269.34 -3 269 C-5.85704191 263.28591618 -7.18146846 258.35139594 -7 252 C-7.99 252 -8.98 252 -10 252 C-10 250.35 -10 248.7 -10 247 C-10.66 247 -11.32 247 -12 247 C-12 244.69 -12 242.38 -12 240 C-12.99 240 -13.98 240 -15 240 C-15.144375 238.865625 -15.28875 237.73125 -15.4375 236.5625 C-15.61171478 233.19222799 -15.61171478 233.19222799 -17 232 C-17.04092937 229.66702567 -17.04241723 227.33294775 -17 225 C-17.99 225 -18.98 225 -20 225 C-21.60339848 221.88228073 -22.18974141 220.60988311 -21.125 217.1875 C-20.75375 216.465625 -20.3825 215.74375 -20 215 C-20.66 215 -21.32 215 -22 215 C-22 214.01 -22 213.02 -22 212 C-22.66 212 -23.32 212 -24 212 C-23.42415568 209.61435923 -22.77772405 207.33317216 -22 205 C-23.65 204.67 -25.3 204.34 -27 204 C-26.814375 203.443125 -26.62875 202.88625 -26.4375 202.3125 C-25.84782919 200.03141401 -25.84782919 200.03141401 -26.46875 197.90625 C-27.18627321 193.98097598 -27.10587148 190.16766725 -27.0625 186.1875 C-27.05798828 185.39923828 -27.05347656 184.61097656 -27.04882812 183.79882812 C-27.03711312 181.86585239 -27.01917998 179.93291607 -27 178 C-27.99 178 -28.98 178 -30 178 C-32.43769218 174.34346173 -32.23944439 172.30999899 -32 168 C-31.67 167.67 -31.34 167.34 -31 167 C-30.90002358 164.50941086 -30.86120373 162.05272605 -30.875 159.5625 C-30.87113281 158.86833984 -30.86726562 158.17417969 -30.86328125 157.45898438 C-30.80640165 153.60230243 -30.80640165 153.60230243 -32 150 C-32.09699846 148.06442322 -32.13076201 146.12550463 -32.1328125 144.1875 C-32.13410156 143.02992188 -32.13539063 141.87234375 -32.13671875 140.6796875 C-32.13285156 139.46539063 -32.12898437 138.25109375 -32.125 137 C-32.12886719 135.78570313 -32.13273438 134.57140625 -32.13671875 133.3203125 C-32.13542969 132.16273438 -32.13414062 131.00515625 -32.1328125 129.8125 C-32.13168457 128.74644531 -32.13055664 127.68039062 -32.12939453 126.58203125 C-32 124 -32 124 -31 122 C-30.90208977 119.30170926 -30.8609375 116.63515539 -30.875 113.9375 C-30.87113281 113.19177734 -30.86726562 112.44605469 -30.86328125 111.67773438 C-30.52788848 108.04082676 -30.52788848 108.04082676 -32 105 C-32.29386153 101.27775401 -32.14809171 100.22213757 -30 97 C-29.01 97 -28.02 97 -27 97 C-27 88.09 -27 79.18 -27 70 C-24.525 69.505 -24.525 69.505 -22 69 C-22.66 68.01 -23.32 67.02 -24 66 C-23.67873872 63.36565746 -23.18644952 61.37289903 -22 59 C-21.34 59 -20.68 59 -20 59 C-20 58.01 -20 57.02 -20 56 C-20.66 56 -21.32 56 -22 56 C-21.55040431 53.90188676 -21.06759712 52.12681443 -20.0546875 50.2265625 C-18.79672321 47.57086011 -18.1695365 44.98508527 -17.5 42.125 C-16.50785118 38.00531608 -15.44108811 33.99070552 -14 30 C-13.34 30 -12.68 30 -12 30 C-12 27.69 -12 25.38 -12 23 C-11.34 23 -10.68 23 -10 23 C-9.731875 22.195625 -9.46375 21.39125 -9.1875 20.5625 C-8.795625 19.716875 -8.40375 18.87125 -8 18 C-7.01 17.67 -6.02 17.34 -5 17 C-5 13.04 -5 9.08 -5 5 C-3.35 5 -1.7 5 0 5 C0 3.35 0 1.7 0 0 Z " fill="#FEFDFD" transform="translate(264,378)"/>
<path d="M0 0 C1.21796265 -0.00315216 2.43592529 -0.00630432 3.6907959 -0.009552 C5.03019242 -0.00776222 6.36958862 -0.00571127 7.70898438 -0.00341797 C9.07279477 -0.00409106 10.43660505 -0.00506114 11.80041504 -0.00631714 C14.66203959 -0.00779385 17.52363297 -0.00564044 20.38525391 -0.00097656 C24.06092051 0.00472073 27.73651411 0.00144157 31.41217804 -0.00454903 C34.22935541 -0.00815538 37.04651535 -0.00701571 39.86369324 -0.00442123 C41.21933501 -0.00375217 42.57497834 -0.00457968 43.93061829 -0.00690079 C45.82223482 -0.00942848 47.71385687 -0.00489561 49.60546875 0 C51.2231012 0.00119339 51.2231012 0.00119339 52.87341309 0.00241089 C55.30273438 0.12939453 55.30273438 0.12939453 56.30273438 1.12939453 C59.01521362 1.34306905 61.71086986 1.50672674 64.42773438 1.62939453 C69.78335712 1.878708 74.99427265 2.31894236 80.30273438 3.12939453 C80.96273437 3.12939453 81.62273437 3.12939453 82.30273438 3.12939453 C83.97238888 3.44742396 85.63951956 3.77924404 87.30273438 4.12939453 C87.30273438 5.11939453 87.30273438 6.10939453 87.30273438 7.12939453 C88.62273437 7.12939453 89.94273437 7.12939453 91.30273438 7.12939453 C91.30273438 6.46939453 91.30273438 5.80939453 91.30273438 5.12939453 C91.90601563 5.35755859 92.50929688 5.58572266 93.13085938 5.82080078 C94.3296875 6.25199219 94.3296875 6.25199219 95.55273438 6.69189453 C96.73609375 7.12695312 96.73609375 7.12695312 97.94335938 7.57080078 C100.4937689 8.1746229 101.85595667 7.97678773 104.30273438 7.12939453 C104.63273438 7.78939453 104.96273437 8.44939453 105.30273438 9.12939453 C107.26152305 9.522478 107.26152305 9.522478 109.55273438 9.62939453 C114.5998888 10.10056876 117.91029356 10.91100882 121.80273438 14.31689453 C124.17110601 16.45118749 124.17110601 16.45118749 127.11523438 15.87939453 C127.83710937 15.63189453 128.55898438 15.38439453 129.30273438 15.12939453 C129.30273438 16.11939453 129.30273438 17.10939453 129.30273438 18.12939453 C135.24273438 19.11939453 135.24273438 19.11939453 141.30273438 20.12939453 C141.30273438 20.78939453 141.30273438 21.44939453 141.30273438 22.12939453 C142.23085938 22.23251953 143.15898438 22.33564453 144.11523438 22.44189453 C147.33527795 23.13641373 148.32853303 23.60680392 150.30273438 26.12939453 C151.29273438 25.79939453 152.28273438 25.46939453 153.30273438 25.12939453 C153.30273438 25.78939453 153.30273438 26.44939453 153.30273438 27.12939453 C154.95273437 27.12939453 156.60273437 27.12939453 158.30273438 27.12939453 C158.63273437 28.11939453 158.96273438 29.10939453 159.30273438 30.12939453 C160.63069728 30.48351797 161.96490044 30.81461008 163.30273438 31.12939453 C164.01429688 31.87189453 164.01429688 31.87189453 164.74023438 32.62939453 C166.7878706 34.59512531 168.54020787 34.75608014 171.30273438 35.12939453 C171.30273438 35.78939453 171.30273438 36.44939453 171.30273438 37.12939453 C172.62273437 37.45939453 173.94273437 37.78939453 175.30273438 38.12939453 C175.30273438 38.78939453 175.30273438 39.44939453 175.30273438 40.12939453 C176.62273437 40.12939453 177.94273437 40.12939453 179.30273438 40.12939453 C179.30273438 40.78939453 179.30273438 41.44939453 179.30273438 42.12939453 C180.08648438 42.27376953 180.87023437 42.41814453 181.67773438 42.56689453 C184.30273438 43.12939453 184.30273438 43.12939453 186.30273438 44.12939453 C186.30273438 45.11939453 186.30273438 46.10939453 186.30273438 47.12939453 C187.29273438 47.12939453 188.28273438 47.12939453 189.30273438 47.12939453 C189.30273438 47.78939453 189.30273438 48.44939453 189.30273438 49.12939453 C190.95273437 49.45939453 192.60273437 49.78939453 194.30273438 50.12939453 C194.30273438 50.78939453 194.30273438 51.44939453 194.30273438 52.12939453 C195.08648438 52.23251953 195.87023437 52.33564453 196.67773438 52.44189453 C199.30273438 53.12939453 199.30273438 53.12939453 201.30273438 56.12939453 C202.16898438 56.62439453 203.03523438 57.11939453 203.92773438 57.62939453 C204.71148438 58.12439453 205.49523437 58.61939453 206.30273438 59.12939453 C206.30273438 60.11939453 206.30273438 61.10939453 206.30273438 62.12939453 C207.06585937 62.27376953 207.82898438 62.41814453 208.61523438 62.56689453 C211.30273438 63.12939453 211.30273438 63.12939453 214.30273438 64.12939453 C214.30273438 65.11939453 214.30273438 66.10939453 214.30273438 67.12939453 C215.62273437 67.45939453 216.94273437 67.78939453 218.30273438 68.12939453 C218.63273437 69.44939453 218.96273438 70.76939453 219.30273438 72.12939453 C220.62273437 72.12939453 221.94273437 72.12939453 223.30273438 72.12939453 C223.30273438 73.11939453 223.30273438 74.10939453 223.30273438 75.12939453 C223.96273438 75.12939453 224.62273437 75.12939453 225.30273438 75.12939453 C225.30273438 75.78939453 225.30273438 76.44939453 225.30273438 77.12939453 C226.29273438 77.12939453 227.28273438 77.12939453 228.30273438 77.12939453 C228.30273438 77.78939453 228.30273438 78.44939453 228.30273438 79.12939453 C229.29273438 79.12939453 230.28273438 79.12939453 231.30273438 79.12939453 C231.30273438 80.11939453 231.30273438 81.10939453 231.30273438 82.12939453 C232.62273437 82.12939453 233.94273437 82.12939453 235.30273438 82.12939453 C235.63273437 83.77939453 235.96273438 85.42939453 236.30273438 87.12939453 C236.96273438 87.12939453 237.62273437 87.12939453 238.30273438 87.12939453 C238.30273438 87.78939453 238.30273438 88.44939453 238.30273438 89.12939453 C239.29273438 89.12939453 240.28273438 89.12939453 241.30273438 89.12939453 C241.30273438 90.11939453 241.30273438 91.10939453 241.30273438 92.12939453 C242.62273437 92.12939453 243.94273437 92.12939453 245.30273438 92.12939453 C248.30273438 96.2008231 248.30273438 96.2008231 248.30273438 99.12939453 C249.54023437 100.08845703 249.54023437 100.08845703 250.80273438 101.06689453 C251.62773438 101.74751953 252.45273437 102.42814453 253.30273438 103.12939453 C253.30273438 104.11939453 253.30273438 105.10939453 253.30273438 106.12939453 C254.29273438 106.12939453 255.28273438 106.12939453 256.30273438 106.12939453 C256.30273438 107.11939453 256.30273438 108.10939453 256.30273438 109.12939453 C257.62273437 109.12939453 258.94273437 109.12939453 260.30273438 109.12939453 C262.05273438 110.87939453 262.05273438 110.87939453 263.30273438 113.12939453 C263.30273438 114.44939453 263.30273438 115.76939453 263.30273438 117.12939453 C263.96273438 117.12939453 264.62273437 117.12939453 265.30273438 117.12939453 C265.63273437 118.44939453 265.96273438 119.76939453 266.30273438 121.12939453 C266.96273438 121.12939453 267.62273437 121.12939453 268.30273438 121.12939453 C268.30273438 122.11939453 268.30273438 123.10939453 268.30273438 124.12939453 C268.96273438 124.12939453 269.62273437 124.12939453 270.30273438 124.12939453 C270.63273437 125.77939453 270.96273438 127.42939453 271.30273438 129.12939453 C271.96273438 129.12939453 272.62273437 129.12939453 273.30273438 129.12939453 C273.30273438 129.78939453 273.30273438 130.44939453 273.30273438 131.12939453 C273.96273438 131.12939453 274.62273437 131.12939453 275.30273438 131.12939453 C275.63273437 132.77939453 275.96273438 134.42939453 276.30273438 136.12939453 C276.96273438 136.12939453 277.62273437 136.12939453 278.30273438 136.12939453 C279.55938415 139.03539714 280.30273438 140.92544038 280.30273438 144.12939453 C281.29273438 144.12939453 282.28273438 144.12939453 283.30273438 144.12939453 C283.30273438 145.77939453 283.30273438 147.42939453 283.30273438 149.12939453 C284.62273437 149.12939453 285.94273437 149.12939453 287.30273438 149.12939453 C287.73585938 150.36689453 288.16898438 151.60439453 288.61523438 152.87939453 C289.80114507 156.0813534 291.20247225 158.42905751 293.30273438 161.12939453 C293.30273438 162.11939453 293.30273438 163.10939453 293.30273438 164.12939453 C293.96273438 164.12939453 294.62273437 164.12939453 295.30273438 164.12939453 C295.30273438 165.77939453 295.30273438 167.42939453 295.30273438 169.12939453 C295.96273438 169.12939453 296.62273437 169.12939453 297.30273438 169.12939453 C299.47806116 172.3017461 300.91400442 175.55837463 302.30273438 179.12939453 C302.63273437 179.45939453 302.96273438 179.78939453 303.30273438 180.12939453 C303.3435422 182.12897817 303.34527794 184.12984707 303.30273438 186.12939453 C303.96273438 186.12939453 304.62273437 186.12939453 305.30273438 186.12939453 C305.30273438 189.42939453 305.30273438 192.72939453 305.30273438 196.12939453 C305.96273438 196.12939453 306.62273437 196.12939453 307.30273438 196.12939453 C307.30273438 197.44939453 307.30273438 198.76939453 307.30273438 200.12939453 C305.60117187 200.34595703 305.60117187 200.34595703 303.86523438 200.56689453 C300.49496236 200.74110931 300.49496236 200.74110931 299.30273438 202.12939453 C281.31614666 203.94681996 263.0196728 203.1756887 244.96620083 203.02885938 C240.53537661 202.99404633 236.10451028 202.96577341 231.67364502 202.93675232 C223.31610635 202.88104653 214.95862039 202.81961518 206.60113835 202.75603098 C197.07247048 202.68382228 187.54376091 202.61814228 178.01504278 202.55296052 C158.44421898 202.41894146 138.87346105 202.27688666 119.30273438 202.12939453 C118.64273438 200.80939453 117.98273438 199.48939453 117.30273438 198.12939453 C116.64273438 198.12939453 115.98273438 198.12939453 115.30273438 198.12939453 C115.30273438 197.13939453 115.30273438 196.14939453 115.30273438 195.12939453 C114.31273437 195.12939453 113.32273437 195.12939453 112.30273438 195.12939453 C112.30273438 192.81939453 112.30273438 190.50939453 112.30273438 188.12939453 C110.98273438 187.79939453 109.66273438 187.46939453 108.30273438 187.12939453 C107.97273437 184.15939453 107.64273438 181.18939453 107.30273438 178.12939453 C105.98273438 177.79939453 104.66273438 177.46939453 103.30273438 177.12939453 C102.97273437 174.15939453 102.64273438 171.18939453 102.30273438 168.12939453 C101.64273438 168.12939453 100.98273438 168.12939453 100.30273438 168.12939453 C100.30273438 167.46939453 100.30273438 166.80939453 100.30273438 166.12939453 C99.31273437 165.79939453 98.32273437 165.46939453 97.30273438 165.12939453 C97.30273438 163.80939453 97.30273438 162.48939453 97.30273438 161.12939453 C96.66335938 160.92314453 96.02398438 160.71689453 95.36523438 160.50439453 C94.68460938 160.05064453 94.00398437 159.59689453 93.30273438 159.12939453 C92.96940104 157.12939453 92.63606771 155.12939453 92.30273438 153.12939453 C90.98626319 152.43001921 89.65251286 151.7621032 88.30273438 151.12939453 C87.55273438 148.50439453 87.55273438 148.50439453 87.30273438 146.12939453 C85.98273438 145.79939453 84.66273438 145.46939453 83.30273438 145.12939453 C82.97273437 142.81939453 82.64273438 140.50939453 82.30273438 138.12939453 C81.64273438 138.12939453 80.98273438 138.12939453 80.30273438 138.12939453 C80.30273438 137.46939453 80.30273438 136.80939453 80.30273438 136.12939453 C79.64273438 136.12939453 78.98273438 136.12939453 78.30273438 136.12939453 C78.30273438 135.13939453 78.30273438 134.14939453 78.30273438 133.12939453 C77.31273437 133.12939453 76.32273437 133.12939453 75.30273438 133.12939453 C75.30273438 131.80939453 75.30273438 130.48939453 75.30273438 129.12939453 C74.64273438 129.12939453 73.98273438 129.12939453 73.30273438 129.12939453 C73.30273438 128.13939453 73.30273438 127.14939453 73.30273438 126.12939453 C72.31273437 126.12939453 71.32273437 126.12939453 70.30273438 126.12939453 C70.30273438 125.46939453 70.30273438 124.80939453 70.30273438 124.12939453 C69.64273438 124.12939453 68.98273438 124.12939453 68.30273438 124.12939453 C68.30273438 123.13939453 68.30273438 122.14939453 68.30273438 121.12939453 C67.31273437 121.12939453 66.32273437 121.12939453 65.30273438 121.12939453 C65.30273438 120.46939453 65.30273438 119.80939453 65.30273438 119.12939453 C63.65273438 118.79939453 62.00273438 118.46939453 60.30273438 118.12939453 C60.30273438 116.80939453 60.30273438 115.48939453 60.30273438 114.12939453 C59.64273438 114.12939453 58.98273438 114.12939453 58.30273438 114.12939453 C58.30273438 113.13939453 58.30273438 112.14939453 58.30273438 111.12939453 C57.31273437 111.12939453 56.32273437 111.12939453 55.30273438 111.12939453 C55.30273438 110.46939453 55.30273438 109.80939453 55.30273438 109.12939453 C54.64273438 109.12939453 53.98273438 109.12939453 53.30273438 109.12939453 C53.30273438 108.13939453 53.30273438 107.14939453 53.30273438 106.12939453 C52.31273437 106.12939453 51.32273437 106.12939453 50.30273438 106.12939453 C50.30273438 105.46939453 50.30273438 104.80939453 50.30273438 104.12939453 C49.64273438 104.12939453 48.98273438 104.12939453 48.30273438 104.12939453 C48.30273438 103.13939453 48.30273438 102.14939453 48.30273438 101.12939453 C47.31273437 101.12939453 46.32273437 101.12939453 45.30273438 101.12939453 C45.30273438 100.46939453 45.30273438 99.80939453 45.30273438 99.12939453 C44.64273438 99.12939453 43.98273438 99.12939453 43.30273438 99.12939453 C43.30273438 98.13939453 43.30273438 97.14939453 43.30273438 96.12939453 C42.31273437 96.12939453 41.32273437 96.12939453 40.30273438 96.12939453 C40.30273438 95.46939453 40.30273438 94.80939453 40.30273438 94.12939453 C38.98273438 94.12939453 37.66273438 94.12939453 36.30273438 94.12939453 C36.30273438 93.13939453 36.30273438 92.14939453 36.30273438 91.12939453 C35.31273437 91.12939453 34.32273437 91.12939453 33.30273438 91.12939453 C33.30273438 90.46939453 33.30273438 89.80939453 33.30273438 89.12939453 C32.31273437 89.12939453 31.32273437 89.12939453 30.30273438 89.12939453 C30.30273438 88.13939453 30.30273438 87.14939453 30.30273438 86.12939453 C28.98273438 86.12939453 27.66273438 86.12939453 26.30273438 86.12939453 C26.30273438 85.46939453 26.30273438 84.80939453 26.30273438 84.12939453 C25.31273437 84.12939453 24.32273437 84.12939453 23.30273438 84.12939453 C23.30273438 83.13939453 23.30273438 82.14939453 23.30273438 81.12939453 C21.98273438 81.12939453 20.66273438 81.12939453 19.30273438 81.12939453 C19.30273438 80.46939453 19.30273438 79.80939453 19.30273438 79.12939453 C18.31273437 79.12939453 17.32273437 79.12939453 16.30273438 79.12939453 C16.30273438 78.46939453 16.30273438 77.80939453 16.30273438 77.12939453 C15.31273437 77.12939453 14.32273437 77.12939453 13.30273438 77.12939453 C12.97273437 76.46939453 12.64273438 75.80939453 12.30273438 75.12939453 C9.76338742 73.79359223 7.16590155 72.62989216 4.55273438 71.44580078 C2.30273438 70.12939453 2.30273438 70.12939453 1.30273438 67.12939453 C0.31273437 67.08814453 -0.67726563 67.04689453 -1.69726562 67.00439453 C-5.99130836 66.42953283 -8.56269523 64.24951934 -11.80273438 61.50439453 C-13.79221532 60.06048259 -15.29706075 59.55515149 -17.69726562 59.12939453 C-17.69726562 58.46939453 -17.69726562 57.80939453 -17.69726562 57.12939453 C-18.64601563 57.15001953 -19.59476562 57.17064453 -20.57226562 57.19189453 C-23.69726562 57.12939453 -23.69726562 57.12939453 -25.69726562 56.12939453 C-25.69726562 55.46939453 -25.69726562 54.80939453 -25.69726562 54.12939453 C-26.68726563 54.12939453 -27.67726563 54.12939453 -28.69726562 54.12939453 C-28.69726562 53.46939453 -28.69726562 52.80939453 -28.69726562 52.12939453 C-30.61539063 52.16033203 -30.61539063 52.16033203 -32.57226562 52.19189453 C-36.44726562 52.25439453 -36.44726562 52.25439453 -38.69726562 51.12939453 C-38.69726562 50.46939453 -38.69726562 49.80939453 -38.69726562 49.12939453 C-39.35726562 49.12939453 -40.01726562 49.12939453 -40.69726562 49.12939453 C-40.69726562 48.46939453 -40.69726562 47.80939453 -40.69726562 47.12939453 C-43.00726563 47.12939453 -45.31726563 47.12939453 -47.69726562 47.12939453 C-48.02726562 46.13939453 -48.35726562 45.14939453 -48.69726562 44.12939453 C-49.68726563 44.12939453 -50.67726563 44.12939453 -51.69726562 44.12939453 C-51.69726562 44.78939453 -51.69726562 45.44939453 -51.69726562 46.12939453 C-53.01726562 46.12939453 -54.33726562 46.12939453 -55.69726562 46.12939453 C-55.69726562 45.46939453 -55.69726562 44.80939453 -55.69726562 44.12939453 C-58.59876624 43.5139247 -61.43492274 43.04187589 -64.38476562 42.69189453 C-67.69726562 42.12939453 -67.69726562 42.12939453 -69.69726562 40.12939453 C-71.01726562 40.78939453 -72.33726562 41.44939453 -73.69726562 42.12939453 C-74.35726562 41.46939453 -75.01726562 40.80939453 -75.69726562 40.12939453 C-78.12979224 39.66777026 -78.12979224 39.66777026 -80.82226562 39.50439453 C-81.73234375 39.42962891 -82.64242188 39.35486328 -83.58007812 39.27783203 C-84.27875 39.22884766 -84.97742188 39.17986328 -85.69726562 39.12939453 C-85.69726562 38.46939453 -85.69726562 37.80939453 -85.69726562 37.12939453 C-86.29265137 37.13463135 -86.88803711 37.13986816 -87.50146484 37.14526367 C-90.19172109 37.16601453 -92.88196052 37.1790486 -95.57226562 37.19189453 C-96.50941406 37.20027344 -97.4465625 37.20865234 -98.41210938 37.21728516 C-99.75595703 37.22211914 -99.75595703 37.22211914 -101.12695312 37.22705078 C-102.36807861 37.23490601 -102.36807861 37.23490601 -103.63427734 37.24291992 C-105.69726562 37.12939453 -105.69726562 37.12939453 -107.69726562 36.12939453 C-107.69726562 34.14939453 -107.69726562 32.16939453 -107.69726562 30.12939453 C-106.37726563 30.12939453 -105.05726563 30.12939453 -103.69726562 30.12939453 C-103.36726563 29.13939453 -103.03726562 28.14939453 -102.69726562 27.12939453 C-102.03726562 27.12939453 -101.37726563 27.12939453 -100.69726562 27.12939453 C-100.69726562 26.46939453 -100.69726562 25.80939453 -100.69726562 25.12939453 C-99.70726562 25.12939453 -98.71726562 25.12939453 -97.69726562 25.12939453 C-97.69726562 24.46939453 -97.69726562 23.80939453 -97.69726562 23.12939453 C-92.40495793 20.05247145 -92.40495793 20.05247145 -88.82226562 20.44189453 C-88.12101562 20.66876953 -87.41976563 20.89564453 -86.69726562 21.12939453 C-86.03726562 20.13939453 -85.37726563 19.14939453 -84.69726562 18.12939453 C-82.56835938 17.25048828 -82.56835938 17.25048828 -80.13476562 16.56689453 C-77.74777241 15.92677883 -77.74777241 15.92677883 -75.69726562 15.12939453 C-75.36726563 14.46939453 -75.03726563 13.80939453 -74.69726562 13.12939453 C-72.36765119 12.77099231 -70.03361219 12.44090741 -67.69726562 12.12939453 C-66.45976562 11.60345703 -66.45976562 11.60345703 -65.19726562 11.06689453 C-61.95752529 9.8519919 -59.12645961 9.99491634 -55.69726562 10.12939453 C-55.36726563 9.13939453 -55.03726563 8.14939453 -54.69726562 7.12939453 C-49.0123962 5.90696958 -43.40246841 4.89083725 -37.60742188 4.37548828 C-35.47905811 4.16355561 -35.47905811 4.16355561 -32.69726562 3.12939453 C-32.69726562 3.78939453 -32.69726562 4.44939453 -32.69726562 5.12939453 C-31.70726562 4.46939453 -30.71726562 3.80939453 -29.69726562 3.12939453 C-28.03107117 3.08972323 -26.36335549 3.08555006 -24.69726562 3.12939453 C-24.36726563 2.79939453 -24.03726563 2.46939453 -23.69726562 2.12939453 C-20.05773366 1.85868554 -16.42483039 1.68293936 -12.77929688 1.52392578 C-8.06135438 1.2916332 -4.71148001 0.00347584 0 0 Z " fill="#FDFDFD" transform="translate(505.697265625,216.87060546875)"/>
<path d="M0 0 C0.78025622 -0.00155999 1.56051244 -0.00311998 2.36441278 -0.00472724 C4.99308283 -0.00873313 7.62169568 -0.00554918 10.25036621 -0.00241089 C12.129166 -0.00376511 14.00796551 -0.00554516 15.88676453 -0.00772095 C21.00026026 -0.01229278 26.11373588 -0.01050674 31.22723198 -0.00734186 C36.56880626 -0.00481698 41.91037878 -0.00715616 47.25195312 -0.00872803 C56.22359528 -0.01054934 65.19522921 -0.0081444 74.16687012 -0.00338745 C84.55173543 0.00205509 94.93658111 0.00029241 105.32144594 -0.00521386 C114.22420562 -0.00974606 123.12695937 -0.01039501 132.02971983 -0.00777519 C137.35284974 -0.00621301 142.67597041 -0.00601705 147.99909973 -0.00931168 C153.0025913 -0.01219193 158.00605747 -0.01021182 163.00954628 -0.00441742 C164.85024791 -0.00309066 166.69095166 -0.00348253 168.53165245 -0.00568008 C171.03569795 -0.00839485 173.53966099 -0.00500641 176.04370117 0 C176.77968237 -0.00223072 177.51566358 -0.00446144 178.27394724 -0.00675976 C183.29355043 0.01283357 183.29355043 0.01283357 185.52185059 1.12698364 C185.29363055 3.56833744 185.04038664 6.00251895 184.77185059 8.43948364 C184.70997559 9.12977661 184.64810059 9.82006958 184.58435059 10.53128052 C183.98544699 15.69682401 183.98544699 15.69682401 181.51794434 17.98635864 C180.8592334 18.36276489 180.20052246 18.73917114 179.52185059 19.12698364 C177.93764557 21.71173919 177.20645867 24.192949 176.52185059 27.12698364 C176.19185059 27.78698364 175.86185059 28.44698364 175.52185059 29.12698364 C174.86185059 29.12698364 174.20185059 29.12698364 173.52185059 29.12698364 C172.58761414 32.13730108 172.47735148 32.99348632 173.52185059 36.12698364 C172.86185059 36.45698364 172.20185059 36.78698364 171.52185059 37.12698364 C170.80025634 38.77061498 170.12833638 40.4374875 169.52185059 42.12698364 C168.53185059 42.12698364 167.54185059 42.12698364 166.52185059 42.12698364 C166.55278809 43.24073364 166.55278809 43.24073364 166.58435059 44.37698364 C166.5285637 46.83160643 166.21486018 48.78807626 165.52185059 51.12698364 C164.20185059 51.45698364 162.88185059 51.78698364 161.52185059 52.12698364 C161.52185059 53.77698364 161.52185059 55.42698364 161.52185059 57.12698364 C160.53185059 57.12698364 159.54185059 57.12698364 158.52185059 57.12698364 C158.19185059 59.10698364 157.86185059 61.08698364 157.52185059 63.12698364 C156.03685059 63.62198364 156.03685059 63.62198364 154.52185059 64.12698364 C154.19185059 65.77698364 153.86185059 67.42698364 153.52185059 69.12698364 C152.86185059 69.12698364 152.20185059 69.12698364 151.52185059 69.12698364 C151.52185059 70.11698364 151.52185059 71.10698364 151.52185059 72.12698364 C150.86185059 72.12698364 150.20185059 72.12698364 149.52185059 72.12698364 C149.19185059 73.77698364 148.86185059 75.42698364 148.52185059 77.12698364 C147.86185059 77.12698364 147.20185059 77.12698364 146.52185059 77.12698364 C146.52185059 77.78698364 146.52185059 78.44698364 146.52185059 79.12698364 C145.86185059 79.12698364 145.20185059 79.12698364 144.52185059 79.12698364 C144.52185059 80.11698364 144.52185059 81.10698364 144.52185059 82.12698364 C143.53185059 82.12698364 142.54185059 82.12698364 141.52185059 82.12698364 C141.37747559 82.91073364 141.23310059 83.69448364 141.08435059 84.50198364 C140.52185059 87.12698364 140.52185059 87.12698364 139.52185059 89.12698364 C138.53185059 89.12698364 137.54185059 89.12698364 136.52185059 89.12698364 C136.52185059 90.11698364 136.52185059 91.10698364 136.52185059 92.12698364 C135.86185059 92.12698364 135.20185059 92.12698364 134.52185059 92.12698364 C133.31557051 94.45912512 132.35637679 96.62340503 131.52185059 99.12698364 C130.86185059 99.12698364 130.20185059 99.12698364 129.52185059 99.12698364 C129.52185059 99.78698364 129.52185059 100.44698364 129.52185059 101.12698364 C128.14685059 102.75198364 128.14685059 102.75198364 126.52185059 104.12698364 C125.86185059 104.12698364 125.20185059 104.12698364 124.52185059 104.12698364 C124.19185059 105.11698364 123.86185059 106.10698364 123.52185059 107.12698364 C122.86185059 107.12698364 122.20185059 107.12698364 121.52185059 107.12698364 C121.52185059 107.78698364 121.52185059 108.44698364 121.52185059 109.12698364 C120.86185059 109.12698364 120.20185059 109.12698364 119.52185059 109.12698364 C119.19185059 110.77698364 118.86185059 112.42698364 118.52185059 114.12698364 C117.20185059 114.12698364 115.88185059 114.12698364 114.52185059 114.12698364 C114.52185059 114.78698364 114.52185059 115.44698364 114.52185059 116.12698364 C113.53185059 116.12698364 112.54185059 116.12698364 111.52185059 116.12698364 C111.52185059 117.77698364 111.52185059 119.42698364 111.52185059 121.12698364 C109.87185059 121.12698364 108.22185059 121.12698364 106.52185059 121.12698364 C106.52185059 122.11698364 106.52185059 123.10698364 106.52185059 124.12698364 C105.06091309 125.51370239 105.06091309 125.51370239 103.14685059 126.81448364 C102.52036621 127.25147583 101.89388184 127.68846802 101.24841309 128.13870239 C99.52185059 129.12698364 99.52185059 129.12698364 97.52185059 129.12698364 C97.52185059 129.78698364 97.52185059 130.44698364 97.52185059 131.12698364 C96.53185059 131.12698364 95.54185059 131.12698364 94.52185059 131.12698364 C94.52185059 132.11698364 94.52185059 133.10698364 94.52185059 134.12698364 C93.86185059 134.12698364 93.20185059 134.12698364 92.52185059 134.12698364 C92.52185059 134.78698364 92.52185059 135.44698364 92.52185059 136.12698364 C91.53185059 136.12698364 90.54185059 136.12698364 89.52185059 136.12698364 C89.19185059 137.11698364 88.86185059 138.10698364 88.52185059 139.12698364 C87.20185059 139.12698364 85.88185059 139.12698364 84.52185059 139.12698364 C84.52185059 139.78698364 84.52185059 140.44698364 84.52185059 141.12698364 C83.86185059 141.12698364 83.20185059 141.12698364 82.52185059 141.12698364 C82.52185059 142.11698364 82.52185059 143.10698364 82.52185059 144.12698364 C81.53185059 144.12698364 80.54185059 144.12698364 79.52185059 144.12698364 C79.52185059 144.78698364 79.52185059 145.44698364 79.52185059 146.12698364 C77.87185059 146.12698364 76.22185059 146.12698364 74.52185059 146.12698364 C74.41872559 146.74573364 74.31560059 147.36448364 74.20935059 148.00198364 C73.52185059 150.12698364 73.52185059 150.12698364 70.52185059 152.12698364 C69.53185059 152.12698364 68.54185059 152.12698364 67.52185059 152.12698364 C67.52185059 152.78698364 67.52185059 153.44698364 67.52185059 154.12698364 C66.53185059 154.12698364 65.54185059 154.12698364 64.52185059 154.12698364 C64.52185059 154.78698364 64.52185059 155.44698364 64.52185059 156.12698364 C62.87185059 156.12698364 61.22185059 156.12698364 59.52185059 156.12698364 C59.19185059 157.77698364 58.86185059 159.42698364 58.52185059 161.12698364 C56.54185059 161.12698364 54.56185059 161.12698364 52.52185059 161.12698364 C52.19185059 162.11698364 51.86185059 163.10698364 51.52185059 164.12698364 C50.20185059 164.12698364 48.88185059 164.12698364 47.52185059 164.12698364 C47.52185059 164.78698364 47.52185059 165.44698364 47.52185059 166.12698364 C45.87185059 166.12698364 44.22185059 166.12698364 42.52185059 166.12698364 C42.52185059 167.11698364 42.52185059 168.10698364 42.52185059 169.12698364 C41.90310059 169.23010864 41.28435059 169.33323364 40.64685059 169.43948364 C38.15658575 170.00223737 38.15658575 170.00223737 36.52185059 173.12698364 C32.89685059 173.31448364 32.89685059 173.31448364 29.52185059 173.12698364 C29.33622559 173.74573364 29.15060059 174.36448364 28.95935059 175.00198364 C26.8224652 178.16085769 24.1076098 178.21424493 20.52185059 179.12698364 C20.19185059 179.78698364 19.86185059 180.44698364 19.52185059 181.12698364 C12.11008588 182.42110129 12.11008588 182.42110129 9.52185059 181.12698364 C9.52185059 181.78698364 9.52185059 182.44698364 9.52185059 183.12698364 C8.86185059 183.12698364 8.20185059 183.12698364 7.52185059 183.12698364 C7.19185059 184.11698364 6.86185059 185.10698364 6.52185059 186.12698364 C5.20185059 186.12698364 3.88185059 186.12698364 2.52185059 186.12698364 C1.53185059 186.78698364 0.54185059 187.44698364 -0.47814941 188.12698364 C-2.81014329 188.20603428 -5.14647564 188.21497133 -7.47814941 188.12698364 C-7.47814941 188.78698364 -7.47814941 189.44698364 -7.47814941 190.12698364 C-13.68329416 192.26318101 -18.90499463 193.49215891 -25.47814941 193.12698364 C-25.47814941 193.78698364 -25.47814941 194.44698364 -25.47814941 195.12698364 C-28.44814941 194.46698364 -31.41814941 193.80698364 -34.47814941 193.12698364 C-34.80814941 194.44698364 -35.13814941 195.76698364 -35.47814941 197.12698364 C-39.72876297 198.54385483 -42.19666566 197.32018403 -46.47814941 196.12698364 C-46.47814941 196.78698364 -46.47814941 197.44698364 -46.47814941 198.12698364 C-48.45814941 198.12698364 -50.43814941 198.12698364 -52.47814941 198.12698364 C-52.47814941 198.78698364 -52.47814941 199.44698364 -52.47814941 200.12698364 C-53.46814941 200.12698364 -54.45814941 200.12698364 -55.47814941 200.12698364 C-55.47814941 199.46698364 -55.47814941 198.80698364 -55.47814941 198.12698364 C-59.10814941 198.12698364 -62.73814941 198.12698364 -66.47814941 198.12698364 C-66.80814941 199.11698364 -67.13814941 200.10698364 -67.47814941 201.12698364 C-86.61814941 201.12698364 -105.75814941 201.12698364 -125.47814941 201.12698364 C-125.47814941 200.13698364 -125.47814941 199.14698364 -125.47814941 198.12698364 C-126.07877197 198.13222046 -126.67939453 198.13745728 -127.29821777 198.14285278 C-130.00401779 198.16356378 -132.70980118 198.17662489 -135.41564941 198.18948364 C-136.36117676 198.19786255 -137.3067041 198.20624146 -138.28088379 198.21487427 C-139.18000488 198.21809692 -140.07912598 198.22131958 -141.00549316 198.22463989 C-141.83814697 198.22987671 -142.67080078 198.23511353 -143.52868652 198.24050903 C-145.47814941 198.12698364 -145.47814941 198.12698364 -146.47814941 197.12698364 C-148.66107715 196.89216671 -150.85018116 196.71335042 -153.04064941 196.56448364 C-154.23818848 196.48069458 -155.43572754 196.39690552 -156.66955566 196.31057739 C-157.5963916 196.24999146 -158.52322754 196.18940552 -159.47814941 196.12698364 C-159.80814941 195.13698364 -160.13814941 194.14698364 -160.47814941 193.12698364 C-163.77814941 193.12698364 -167.07814941 193.12698364 -170.47814941 193.12698364 C-170.47814941 192.46698364 -170.47814941 191.80698364 -170.47814941 191.12698364 C-173.77814941 191.12698364 -177.07814941 191.12698364 -180.47814941 191.12698364 C-180.47814941 190.13698364 -180.47814941 189.14698364 -180.47814941 188.12698364 C-182.78814941 188.12698364 -185.09814941 188.12698364 -187.47814941 188.12698364 C-187.47814941 187.46698364 -187.47814941 186.80698364 -187.47814941 186.12698364 C-188.75689941 186.16823364 -190.03564941 186.20948364 -191.35314941 186.25198364 C-193.53283691 186.32229614 -193.53283691 186.32229614 -195.47814941 186.12698364 C-196.46814941 185.13698364 -196.46814941 185.13698364 -197.47814941 184.12698364 C-199.33490611 183.58138283 -201.21470911 183.11258989 -203.10314941 182.68948364 C-215.98012102 179.62501203 -215.98012102 179.62501203 -219.47814941 176.12698364 C-219.47814941 175.13698364 -219.47814941 174.14698364 -219.47814941 173.12698364 C-221.12814941 173.12698364 -222.77814941 173.12698364 -224.47814941 173.12698364 C-224.80814941 172.46698364 -225.13814941 171.80698364 -225.47814941 171.12698364 C-226.79814941 171.12698364 -228.11814941 171.12698364 -229.47814941 171.12698364 C-229.60314941 168.75198364 -229.60314941 168.75198364 -229.47814941 166.12698364 C-227.47814941 164.12698364 -227.47814941 164.12698364 -224.85314941 164.00198364 C-224.06939941 164.04323364 -223.28564941 164.08448364 -222.47814941 164.12698364 C-222.47814941 164.78698364 -222.47814941 165.44698364 -222.47814941 166.12698364 C-221.05502441 165.69385864 -221.05502441 165.69385864 -219.60314941 165.25198364 C-216.56293677 164.37630373 -213.52310017 163.71932675 -210.41564941 163.12698364 C-207.51741177 162.57284412 -204.91461628 161.93913926 -202.10314941 161.00198364 C-199.47814941 160.12698364 -199.47814941 160.12698364 -195.47814941 160.12698364 C-194.81814941 159.79698364 -194.15814941 159.46698364 -193.47814941 159.12698364 C-191.72977195 158.99842648 -189.97924634 158.89821095 -188.22814941 158.81448364 C-183.20590411 158.42109628 -180.56172131 157.14104862 -176.47814941 154.12698364 C-173.72814941 154.00198364 -173.72814941 154.00198364 -171.47814941 154.12698364 C-170.81814941 153.46698364 -170.15814941 152.80698364 -169.47814941 152.12698364 C-167.31408691 151.71292114 -167.31408691 151.71292114 -164.85314941 151.50198364 C-164.03588379 151.42721802 -163.21861816 151.35245239 -162.37658691 151.27542114 C-161.43686035 151.20194458 -161.43686035 151.20194458 -160.47814941 151.12698364 C-160.47814941 150.46698364 -160.47814941 149.80698364 -160.47814941 149.12698364 C-158.82814941 149.12698364 -157.17814941 149.12698364 -155.47814941 149.12698364 C-155.47814941 148.46698364 -155.47814941 147.80698364 -155.47814941 147.12698364 C-151.24012686 145.59898912 -147.36595647 144.20351873 -142.85314941 143.81448364 C-138.73880563 142.97637658 -137.22501497 141.30881993 -134.25549316 138.49417114 C-131.42230136 136.31479283 -128.99098518 136.27036469 -125.47814941 136.12698364 C-125.47814941 135.46698364 -125.47814941 134.80698364 -125.47814941 134.12698364 C-123.82814941 134.12698364 -122.17814941 134.12698364 -120.47814941 134.12698364 C-120.47814941 133.46698364 -120.47814941 132.80698364 -120.47814941 132.12698364 C-119.48814941 132.12698364 -118.49814941 132.12698364 -117.47814941 132.12698364 C-117.14814941 131.13698364 -116.81814941 130.14698364 -116.47814941 129.12698364 C-113.25023387 126.97503994 -112.19414132 126.92611922 -108.47814941 127.12698364 C-108.38533691 125.95135864 -108.38533691 125.95135864 -108.29064941 124.75198364 C-107.47814941 122.12698364 -107.47814941 122.12698364 -105.16564941 120.87698364 C-100.52360396 119.5815291 -100.52360396 119.5815291 -98.47814941 119.12698364 C-98.47814941 118.46698364 -98.47814941 117.80698364 -98.47814941 117.12698364 C-94.09353403 114.12698364 -94.09353403 114.12698364 -91.47814941 114.12698364 C-91.47814941 113.46698364 -91.47814941 112.80698364 -91.47814941 112.12698364 C-90.48814941 112.12698364 -89.49814941 112.12698364 -88.47814941 112.12698364 C-88.47814941 111.13698364 -88.47814941 110.14698364 -88.47814941 109.12698364 C-85.01314941 108.13698364 -85.01314941 108.13698364 -81.47814941 107.12698364 C-81.14814941 105.80698364 -80.81814941 104.48698364 -80.47814941 103.12698364 C-79.81814941 103.12698364 -79.15814941 103.12698364 -78.47814941 103.12698364 C-78.47814941 102.13698364 -78.47814941 101.14698364 -78.47814941 100.12698364 C-76.00314941 99.63198364 -76.00314941 99.63198364 -73.47814941 99.12698364 C-73.47814941 98.46698364 -73.47814941 97.80698364 -73.47814941 97.12698364 C-72.81814941 97.12698364 -72.15814941 97.12698364 -71.47814941 97.12698364 C-71.14814941 95.80698364 -70.81814941 94.48698364 -70.47814941 93.12698364 C-69.81814941 93.12698364 -69.15814941 93.12698364 -68.47814941 93.12698364 C-68.47814941 92.13698364 -68.47814941 91.14698364 -68.47814941 90.12698364 C-66.51092933 88.74574401 -64.50946613 87.41210238 -62.47814941 86.12698364 C-62.14814941 85.46698364 -61.81814941 84.80698364 -61.47814941 84.12698364 C-60.48814941 84.12698364 -59.49814941 84.12698364 -58.47814941 84.12698364 C-58.47814941 82.80698364 -58.47814941 81.48698364 -58.47814941 80.12698364 C-57.69439941 80.06510864 -56.91064941 80.00323364 -56.10314941 79.93948364 C-55.23689941 79.67135864 -54.37064941 79.40323364 -53.47814941 79.12698364 C-52.76087163 77.48146403 -52.09489714 75.81276075 -51.47814941 74.12698364 C-50.81814941 73.81760864 -50.15814941 73.50823364 -49.47814941 73.18948364 C-47.12294349 72.21426373 -47.12294349 72.21426373 -46.22814941 69.00198364 C-45.85689941 67.57885864 -45.85689941 67.57885864 -45.47814941 66.12698364 C-44.81814941 66.12698364 -44.15814941 66.12698364 -43.47814941 66.12698364 C-42.48814941 64.14698364 -42.48814941 64.14698364 -41.47814941 62.12698364 C-40.81814941 62.12698364 -40.15814941 62.12698364 -39.47814941 62.12698364 C-39.14814941 59.81698364 -38.81814941 57.50698364 -38.47814941 55.12698364 C-37.81814941 55.12698364 -37.15814941 55.12698364 -36.47814941 55.12698364 C-36.47814941 54.46698364 -36.47814941 53.80698364 -36.47814941 53.12698364 C-35.81814941 52.79698364 -35.15814941 52.46698364 -34.47814941 52.12698364 C-33.73564941 50.85854614 -33.73564941 50.85854614 -32.97814941 49.56448364 C-32.23564941 48.35792114 -32.23564941 48.35792114 -31.47814941 47.12698364 C-30.81814941 47.12698364 -30.15814941 47.12698364 -29.47814941 47.12698364 C-29.47814941 46.46698364 -29.47814941 45.80698364 -29.47814941 45.12698364 C-28.81814941 44.79698364 -28.15814941 44.46698364 -27.47814941 44.12698364 C-27.10058134 42.80549538 -26.77629181 41.46862443 -26.47814941 40.12698364 C-25.83121291 38.45255975 -25.16855516 36.78395743 -24.47814941 35.12698364 C-23.48814941 35.12698364 -22.49814941 35.12698364 -21.47814941 35.12698364 C-21.54002441 34.19885864 -21.60189941 33.27073364 -21.66564941 32.31448364 C-21.47814941 29.12698364 -21.47814941 29.12698364 -20.04064941 27.43948364 C-19.52502441 27.00635864 -19.00939941 26.57323364 -18.47814941 26.12698364 C-18.14814941 25.13698364 -17.81814941 24.14698364 -17.47814941 23.12698364 C-16.81814941 23.12698364 -16.15814941 23.12698364 -15.47814941 23.12698364 C-15.14814941 20.15698364 -14.81814941 17.18698364 -14.47814941 14.12698364 C-13.48814941 13.79698364 -12.49814941 13.46698364 -11.47814941 13.12698364 C-11.47814941 11.80698364 -11.47814941 10.48698364 -11.47814941 9.12698364 C-11.18445115 7.78436299 -10.85025362 6.45002081 -10.47814941 5.12698364 C-10.33377441 4.40510864 -10.18939941 3.68323364 -10.04064941 2.93948364 C-9.85502441 2.34135864 -9.66939941 1.74323364 -9.47814941 1.12698364 C-6.45131152 -0.3864353 -3.31986345 -0.01006234 0 0 Z " fill="#FDFDFD" transform="translate(627.4781494140625,612.8730163574219)"/>
<path d="M0 0 C53.46 0 106.92 0 162 0 C162 0.66 162 1.32 162 2 C145.03322624 3.17997506 128.09085818 3.05473167 111.09626102 2.89946485 C107.14190335 2.86458336 103.18749767 2.83635562 99.23309326 2.80735779 C91.7786567 2.75171587 84.32428022 2.69027453 76.86990809 2.62663645 C68.36903628 2.55435524 59.868117 2.48871148 51.36718798 2.42356598 C33.91139657 2.28965072 16.45568101 2.14759272 -1 2 C-0.67 1.34 -0.34 0.68 0 0 Z " fill="#C4A3A3" transform="translate(643,417)"/>
<path d="M0 0 C1.65 0.33 3.3 0.66 5 1 C3.35 4.3 1.7 7.6 0 11 C-0.66 11 -1.32 11 -2 11 C-2 13.31 -2 15.62 -2 18 C-2.66 18 -3.32 18 -4 18 C-4 18.99 -4 19.98 -4 21 C-4.66 21 -5.32 21 -6 21 C-6.33 21.66 -6.66 22.32 -7 23 C-8.35439668 20.29120665 -8.06501451 17.99066732 -8 15 C-7.01 15 -6.02 15 -5 15 C-5.04125 14.0925 -5.0825 13.185 -5.125 12.25 C-5.00468444 9.1217954 -4.6085292 7.61385994 -3 5 C-2.01 5 -1.02 5 0 5 C0 3.35 0 1.7 0 0 Z " fill="#DBD4CC" transform="translate(402,436)"/>
<path d="M0 0 C1.0326802 2.78823655 1.04509293 3.8677274 0.0625 6.75 C-0.4634375 7.86375 -0.4634375 7.86375 -1 9 C-1.99 8.67 -2.98 8.34 -4 8 C-4.99 8 -5.98 8 -7 8 C-7 8.99 -7 9.98 -7 11 C-7.99 11 -8.98 11 -10 11 C-10 11.66 -10 12.32 -10 13 C-10.66 13 -11.32 13 -12 13 C-12 13.99 -12 14.98 -12 16 C-13.65 16 -15.3 16 -17 16 C-17 15.34 -17 14.68 -17 14 C-16.34 14 -15.68 14 -15 14 C-15 13.01 -15 12.02 -15 11 C-13.03277992 9.61876037 -11.03131672 8.28511874 -9 7 C-8.67 6.34 -8.34 5.68 -8 5 C-7.01 5 -6.02 5 -5 5 C-5 3.68 -5 2.36 -5 1 C-3 0 -3 0 0 0 Z " fill="#F4E2DE" transform="translate(574,692)"/>
<path d="M0 0 C0.99 0 1.98 0 3 0 C3.04898437 0.99902344 3.09796875 1.99804688 3.1484375 3.02734375 C3.22320312 4.31769531 3.29796875 5.60804688 3.375 6.9375 C3.44460938 8.22527344 3.51421875 9.51304687 3.5859375 10.83984375 C3.72257812 11.88269531 3.85921875 12.92554688 4 14 C4.66 14.33 5.32 14.66 6 15 C6 16.32 6 17.64 6 19 C3.69 18.67 1.38 18.34 -1 18 C-1.09945415 11.88909517 -1.0712828 6.02596573 0 0 Z " fill="#D6C0B8" transform="translate(382,517)"/>
<path d="M0 0 C1.9375 0.75 1.9375 0.75 4 2 C4.75 4.125 4.75 4.125 5 6 C5.99 6 6.98 6 8 6 C9.42258812 9.82320557 10.24042276 12.91281305 10 17 C9.01 17 8.02 17 7 17 C6.896875 16.360625 6.79375 15.72125 6.6875 15.0625 C6.460625 14.381875 6.23375 13.70125 6 13 C5.01 12.67 4.02 12.34 3 12 C1.27177855 8.47708705 -0.39910491 4.90581806 -1 1 C-0.67 0.67 -0.34 0.34 0 0 Z " fill="#D6C8C6" transform="translate(258,635)"/>
<path d="M0 0 C2.97 0.495 2.97 0.495 6 1 C5.979375 1.845625 5.95875 2.69125 5.9375 3.5625 C6.00216232 7.11892777 6.4385496 10.49093503 7 14 C7.66 14 8.32 14 9 14 C9 16.64 9 19.28 9 22 C8.01 22 7.02 22 6 22 C5.855625 20.865625 5.71125 19.73125 5.5625 18.5625 C5.38828522 15.19222799 5.38828522 15.19222799 4 14 C3.95907063 11.66702567 3.95758277 9.33294775 4 7 C3.01 7 2.02 7 1 7 C-0.0625 4.625 -0.0625 4.625 -1 2 C-0.67 1.34 -0.34 0.68 0 0 Z " fill="#EEDACE" transform="translate(243,596)"/>
<path d="M0 0 C0.66 0 1.32 0 2 0 C2 0.66 2 1.32 2 2 C3.65 2 5.3 2 7 2 C7.33 2.99 7.66 3.98 8 5 C9.32796291 5.35412344 10.66216607 5.68521554 12 6 C12.474375 6.495 12.94875 6.99 13.4375 7.5 C15.48513623 9.46573078 17.23747349 9.62668561 20 10 C20 10.66 20 11.32 20 12 C21.32 12.33 22.64 12.66 24 13 C24 13.66 24 14.32 24 15 C22.35 15 20.7 15 19 15 C19 14.34 19 13.68 19 13 C17.35 13 15.7 13 14 13 C13.79375 12.38125 13.5875 11.7625 13.375 11.125 C11.45224112 8.15346355 9.33405473 7.86975341 6 7 C6 6.34 6 5.68 6 5 C4.02 5 2.04 5 0 5 C0 3.35 0 1.7 0 0 Z " fill="#CAACA3" transform="translate(657,242)"/>
<path d="M0 0 C0.99 0.33 1.98 0.66 3 1 C2.34 2.32 1.68 3.64 1 5 C-0.32 5 -1.64 5 -3 5 C-3 6.32 -3 7.64 -3 9 C-5.64 9 -8.28 9 -11 9 C-11 8.34 -11 7.68 -11 7 C-12.98 7 -14.96 7 -17 7 C-17 6.34 -17 5.68 -17 5 C-16.02160156 4.81824219 -16.02160156 4.81824219 -15.0234375 4.6328125 C-6.92219118 3.59117667 -6.92219118 3.59117667 0 0 Z " fill="#CDBAB6" transform="translate(429,772)"/>
<path d="M0 0 C0.66 0 1.32 0 2 0 C2.2091555 5.12430976 1.44970768 9.10723658 0 14 C0 14.9075 0 15.815 0 16.75 C0 19 0 19 -2 22 C-2 23.155 -2 24.31 -2 25.5 C-2 29 -2 29 -4 32 C-5 31 -5 31 -5.09765625 27.83984375 C-5.08025391 25.90818359 -5.08025391 25.90818359 -5.0625 23.9375 C-5.05347656 22.64714844 -5.04445313 21.35679687 -5.03515625 20.02734375 C-5.02355469 19.02832031 -5.01195312 18.02929688 -5 17 C-4.34 16.67 -3.68 16.34 -3 16 C-2.53248212 13.64400765 -2.53248212 13.64400765 -2.375 10.9375 C-2.30023438 10.01839844 -2.22546875 9.09929687 -2.1484375 8.15234375 C-2.09945313 7.44207031 -2.05046875 6.73179687 -2 6 C-1.34 6 -0.68 6 0 6 C0 4.02 0 2.04 0 0 Z " fill="#C79D97" transform="translate(390,469)"/>
<path d="M0 0 C-0.33 0.99 -0.66 1.98 -1 3 C-0.34 3.33 0.32 3.66 1 4 C1 5.32 1 6.64 1 8 C1.99 7.67 2.98 7.34 4 7 C4.33 7.66 4.66 8.32 5 9 C7.02463255 9.65213292 7.02463255 9.65213292 9 10 C8.67 11.65 8.34 13.3 8 15 C7.67 14.34 7.34 13.68 7 13 C6.01 13 5.02 13 4 13 C4 12.34 4 11.68 4 11 C3.01 11 2.02 11 1 11 C0.67 10.34 0.34 9.68 0 9 C-2.11015954 7.87293294 -2.11015954 7.87293294 -4.5625 6.875 C-5.38878906 6.52179688 -6.21507812 6.16859375 -7.06640625 5.8046875 C-7.70449219 5.53914063 -8.34257812 5.27359375 -9 5 C-9 4.34 -9 3.68 -9 3 C-3.375 0 -3.375 0 0 0 Z " fill="#FCECE5" transform="translate(518,283)"/>
<path d="M0 0 C0.99 0.33 1.98 0.66 3 1 C2.34 2.32 1.68 3.64 1 5 C0.34 5 -0.32 5 -1 5 C-1 5.66 -1 6.32 -1 7 C-2.375 8.625 -2.375 8.625 -4 10 C-4.66 10 -5.32 10 -6 10 C-6.33 10.99 -6.66 11.98 -7 13 C-7.66 13 -8.32 13 -9 13 C-9 13.66 -9 14.32 -9 15 C-9.66 15 -10.32 15 -11 15 C-11.33 16.65 -11.66 18.3 -12 20 C-12.99 20 -13.98 20 -15 20 C-15 18.02 -15 16.04 -15 14 C-14.01 14 -13.02 14 -12 14 C-12 13.34 -12 12.68 -12 12 C-11.01 12 -10.02 12 -9 12 C-9 11.34 -9 10.68 -9 10 C-8.34 10 -7.68 10 -7 10 C-7 9.01 -7 8.02 -7 7 C-6.01 7 -5.02 7 -4 7 C-4 6.34 -4 5.68 -4 5 C-3.34 5 -2.68 5 -2 5 C-2 3.68 -2 2.36 -2 1 C-1.34 0.67 -0.68 0.34 0 0 Z " fill="#E0CCCB" transform="translate(758,707)"/>
<path d="M0 0 C1.32 0.33 2.64 0.66 4 1 C3.34 2.65 2.68 4.3 2 6 C1.01 6 0.02 6 -1 6 C-1.144375 6.598125 -1.28875 7.19625 -1.4375 7.8125 C-1.8872439 9.56150404 -2.42892341 11.28677023 -3 13 C-5.5625 14.1875 -5.5625 14.1875 -8 15 C-8.33 13.35 -8.66 11.7 -9 10 C-8.34 10 -7.68 10 -7 10 C-7 9.34 -7 8.68 -7 8 C-6.34 7.67 -5.68 7.34 -5 7 C-4.505 6.154375 -4.01 5.30875 -3.5 4.4375 C-3.005 3.633125 -2.51 2.82875 -2 2 C-1.34 2 -0.68 2 0 2 C0 1.34 0 0.68 0 0 Z " fill="#E3D8D3" transform="translate(598,658)"/>
<path d="M0 0 C0.66 0 1.32 0 2 0 C2 1.32 2 2.64 2 4 C2.99 4 3.98 4 5 4 C5 4.66 5 5.32 5 6 C5.66 6 6.32 6 7 6 C7 6.99 7 7.98 7 9 C7.66 9 8.32 9 9 9 C12 14.75 12 14.75 12 17 C11.01 17.33 10.02 17.66 9 18 C9 16.68 9 15.36 9 14 C8.34 14 7.68 14 7 14 C7 12.68 7 11.36 7 10 C5.35 10.66 3.7 11.32 2 12 C1.67 9.69 1.34 7.38 1 5 C0.34 5 -0.32 5 -1 5 C-0.67 3.35 -0.34 1.7 0 0 Z " fill="#D6C3BC" transform="translate(420,617)"/>
<path d="M0 0 C0.99 0 1.98 0 3 0 C3 0.66 3 1.32 3 2 C3.99 2.33 4.98 2.66 6 3 C5.67 6.96 5.34 10.92 5 15 C3.35 14.67 1.7 14.34 0 14 C0.185625 13.443125 0.37125 12.88625 0.5625 12.3125 C1.08119018 9.5708519 0.59530945 7.71196528 0 5 C-0.0370279 3.3337447 -0.04759962 1.66598681 0 0 Z " fill="#D8C8C4" transform="translate(237,568)"/>
<path d="M0 0 C0 0.99 0 1.98 0 3 C-1.65 3 -3.3 3 -5 3 C-5 3.99 -5 4.98 -5 6 C-6.32 6 -7.64 6 -9 6 C-9.33 6.99 -9.66 7.98 -10 9 C-11.65 9 -13.3 9 -15 9 C-15 8.34 -15 7.68 -15 7 C-15.99 7 -16.98 7 -18 7 C-18 6.34 -18 5.68 -18 5 C-16.35 5 -14.7 5 -13 5 C-13 4.34 -13 3.68 -13 3 C-11.58603098 2.49242138 -10.16868271 1.99425075 -8.75 1.5 C-7.96109375 1.2215625 -7.1721875 0.943125 -6.359375 0.65625 C-4 0 -4 0 0 0 Z " fill="#EDDBD6" transform="translate(485,757)"/>
<path d="M0 0 C0.33 0.66 0.66 1.32 1 2 C3.97 2 6.94 2 10 2 C9.67 3.98 9.34 5.96 9 8 C7.68 8 6.36 8 5 8 C5 7.34 5 6.68 5 6 C1.02022924 5.1558062 -2.97007218 4.55312735 -7 4 C-7.33 3.01 -7.66 2.02 -8 1 C-5.29120665 -0.35439668 -2.99066732 -0.06501451 0 0 Z " fill="#DDD0D0" transform="translate(445,255)"/>
<path d="M0 0 C0 0.66 0 1.32 0 2 C-21.53191489 3.38297872 -21.53191489 3.38297872 -32 2 C-32 1.67 -32 1.34 -32 1 C-21.31563078 -0.07419152 -10.72655709 -0.10194194 0 0 Z " fill="#B38677" transform="translate(805,417)"/>
<path d="M0 0 C-0.33 0.66 -0.66 1.32 -1 2 C-3.06640625 2.6328125 -3.06640625 2.6328125 -5.5625 3.125 C-6.38878906 3.29257812 -7.21507812 3.46015625 -8.06640625 3.6328125 C-8.70449219 3.75398438 -9.34257812 3.87515625 -10 4 C-10 3.67 -10 3.34 -10 3 C-13.63 2.67 -17.26 2.34 -21 2 C-21 1.34 -21 0.68 -21 0 C-15.22929404 -2.88535298 -6.22020059 -1.13094556 0 0 Z " fill="#B19C9B" transform="translate(437,379)"/>
<path d="M0 0 C0.33 0 0.66 0 1 0 C1 2.31 1 4.62 1 7 C0.01 7 -0.98 7 -2 7 C-1.938125 8.299375 -1.938125 8.299375 -1.875 9.625 C-2.00457721 13.12358468 -2.76019656 15.74551597 -4 19 C-4.99 19 -5.98 19 -7 19 C-7 19.99 -7 20.98 -7 22 C-7.66 21.67 -8.32 21.34 -9 21 C-8 18 -7 15 -6 12 C-5.34 12 -4.68 12 -4 12 C-4 9.69 -4 7.38 -4 5 C-3.34 5 -2.68 5 -2 5 C-1.34 3.35 -0.68 1.7 0 0 Z " fill="#DCB6B6" transform="translate(256,396)"/>
<path d="M0 0 C1.65 0.33 3.3 0.66 5 1 C4.67 2.32 4.34 3.64 4 5 C3.01 5 2.02 5 1 5 C1 5.99 1 6.98 1 8 C0.01 8 -0.98 8 -2 8 C-2 9.65 -2 11.3 -2 13 C-2.99 13 -3.98 13 -5 13 C-5 10.36 -5 7.72 -5 5 C-3.35 5 -1.7 5 0 5 C0 3.35 0 1.7 0 0 Z " fill="#DCC9C9" transform="translate(264,378)"/>
<path d="M0 0 C1.32 0 2.64 0 4 0 C4 0.99 4 1.98 4 3 C0.3558226 5.4294516 -1.71241272 5.16179575 -6 5 C-6 5.66 -6 6.32 -6 7 C-8.31 7.33 -10.62 7.66 -13 8 C-13 7.01 -13 6.02 -13 5 C-12.195625 4.87625 -11.39125 4.7525 -10.5625 4.625 C-9.716875 4.41875 -8.87125 4.2125 -8 4 C-7.67 3.34 -7.34 2.68 -7 2 C-5.02 2 -3.04 2 -1 2 C-0.67 1.34 -0.34 0.68 0 0 Z " fill="#C19F9C" transform="translate(626,796)"/>
<path d="M0 0 C0 4.51753591 -1.10870118 8.46048385 -3.375 12.375 C-5 14 -5 14 -9 15 C-8.34 12.36 -7.68 9.72 -7 7 C-6.34 7 -5.68 7 -5 7 C-5 6.01 -5 5.02 -5 4 C-4.01 4 -3.02 4 -2 4 C-1.34 2.68 -0.68 1.36 0 0 Z " fill="#F7ECE9" transform="translate(254,411)"/>
<path d="M0 0 C0 2.97 0 5.94 0 9 C-0.99 9 -1.98 9 -3 9 C-3 10.32 -3 11.64 -3 13 C-3.66 13 -4.32 13 -5 13 C-5 9.04 -5 5.08 -5 1 C-3 0 -3 0 0 0 Z " fill="#DDB9B5" transform="translate(242,447)"/>
<path d="M0 0 C0.99 0 1.98 0 3 0 C3 0.66 3 1.32 3 2 C3.99 2 4.98 2 6 2 C6 2.66 6 3.32 6 4 C6.99 4 7.98 4 9 4 C10.4783226 6.95664519 10.06032783 9.74229737 10 13 C9.01 12.67 8.02 12.34 7 12 C7 10.68 7 9.36 7 8 C6.34 8 5.68 8 5 8 C5 7.01 5 6.02 5 5 C4.01 5 3.02 5 2 5 C2 4.34 2 3.68 2 3 C1.34 3 0.68 3 0 3 C0 2.01 0 1.02 0 0 Z " fill="#E9DBD0" transform="translate(559,323)"/>
<path d="M0 0 C0.66 0 1.32 0 2 0 C2.33 1.32 2.66 2.64 3 4 C3.99 4 4.98 4 6 4 C5.3125 5.9375 5.3125 5.9375 4 8 C1.375 8.75 1.375 8.75 -1 9 C-1 8.34 -1 7.68 -1 7 C-1.66 7 -2.32 7 -3 7 C-2.38722388 4.03824877 -1.74627478 2.61941217 0 0 Z " fill="#FBECE9" transform="translate(245,427)"/>
<path d="M0 0 C0.99 0 1.98 0 3 0 C3 0.99 3 1.98 3 3 C2.34 3 1.68 3 1 3 C0.67 3.99 0.34 4.98 0 6 C-3.6441774 8.4294516 -5.71241272 8.16179575 -10 8 C-9.67 7.01 -9.34 6.02 -9 5 C-6.08961104 3.5841351 -3.153498 2.70077733 0 2 C0 1.34 0 0.68 0 0 Z " fill="#EADFDB" transform="translate(529,730)"/>
<path d="M0 0 C3.63 0 7.26 0 11 0 C11.33 0.99 11.66 1.98 12 3 C14.01508358 3.73323796 14.01508358 3.73323796 16 4 C14.02 4.99 14.02 4.99 12 6 C11.34 5.34 10.68 4.68 10 4 C7.56747339 3.53837573 7.56747339 3.53837573 4.875 3.375 C3.96492188 3.30023438 3.05484375 3.22546875 2.1171875 3.1484375 C1.41851562 3.09945313 0.71984375 3.05046875 0 3 C0 2.01 0 1.02 0 0 Z " fill="#C6ABAE" transform="translate(420,253)"/>
<path d="M0 0 C1.32 0 2.64 0 4 0 C4.33 0.99 4.66 1.98 5 3 C8.00847418 4.22520264 8.00847418 4.22520264 11 5 C9 7 9 7 5.5 7.1875 C2 7 2 7 0 6 C0 4.02 0 2.04 0 0 Z " fill="#917373" transform="translate(398,247)"/>
<path d="M0 0 C1.8871875 0.0309375 1.8871875 0.0309375 3.8125 0.0625 C3.8125 1.3825 3.8125 2.7025 3.8125 4.0625 C-0.1475 4.0625 -4.1075 4.0625 -8.1875 4.0625 C-7.8575 3.0725 -7.5275 2.0825 -7.1875 1.0625 C-4.43671116 0.14557039 -2.82801087 -0.04636083 0 0 Z " fill="#EBD8D5" transform="translate(556.1875,809.9375)"/>
<path d="M0 0 C0.66 0 1.32 0 2 0 C5.21702441 4.69149393 7.0424672 9.41439198 8 15 C7.01 15 6.02 15 5 15 C5 13.35 5 11.7 5 10 C4.01 10 3.02 10 2 10 C2 8.35 2 6.7 2 5 C1.34 5 0.68 5 0 5 C0 3.35 0 1.7 0 0 Z " fill="#C5ADAC" transform="translate(801,386)"/>
<path d="M0 0 C0.99 0 1.98 0 3 0 C3 0.66 3 1.32 3 2 C3.99 2 4.98 2 6 2 C6 2.99 6 3.98 6 5 C7.32 5 8.64 5 10 5 C10.33 6.65 10.66 8.3 11 10 C10.01 10 9.02 10 8 10 C8 9.34 8 8.68 8 8 C7.01 8 6.02 8 5 8 C5 7.01 5 6.02 5 5 C3.68 4.67 2.36 4.34 1 4 C0.67 2.68 0.34 1.36 0 0 Z " fill="#E2C7C4" transform="translate(731,294)"/>
<path d="M0 0 C1.98 0 3.96 0 6 0 C6 0.99 6 1.98 6 3 C4.02 3 2.04 3 0 3 C0 3.99 0 4.98 0 6 C-2.97 5.67 -5.94 5.34 -9 5 C-8.67 4.34 -8.34 3.68 -8 3 C-5.69 3 -3.38 3 -1 3 C-0.67 2.01 -0.34 1.02 0 0 Z " fill="#C09D9B" transform="translate(451,224)"/>
<path d="M0 0 C1.32 0.33 2.64 0.66 4 1 C4 2.32 4 3.64 4 5 C5.32 4.67 6.64 4.34 8 4 C7.34 5.65 6.68 7.3 6 9 C5.34 9 4.68 9 4 9 C3.67 9.99 3.34 10.98 3 12 C2.67 12 2.34 12 2 12 C1.34 8.04 0.68 4.08 0 0 Z " fill="#A39A83" transform="translate(438,378)"/>
<path d="M0 0 C1.670625 0.061875 1.670625 0.061875 3.375 0.125 C2.6875 2.5625 2.6875 2.5625 1.375 5.125 C-1.25 5.9375 -1.25 5.9375 -3.625 6.125 C-4.285 4.805 -4.945 3.485 -5.625 2.125 C-3.625 0.125 -3.625 0.125 0 0 Z " fill="#F7EBE5" transform="translate(461.625,764.875)"/>
<path d="M0 0 C0.86625 0.2784375 0.86625 0.2784375 1.75 0.5625 C3.94367237 1.15916261 3.94367237 1.15916261 5.84765625 0.5078125 C8.29524377 -0.06965824 10.1941043 0.03637188 12.6875 0.3125 C13.47511719 0.39113281 14.26273437 0.46976562 15.07421875 0.55078125 C16.02748047 0.77314453 16.02748047 0.77314453 17 1 C17.33 1.66 17.66 2.32 18 3 C12.06 3 6.12 3 0 3 C0 2.01 0 1.02 0 0 Z " fill="#A18383" transform="translate(270,378)"/>
<path d="M0 0 C0.66 0.33 1.32 0.66 2 1 C1.3203125 2.953125 1.3203125 2.953125 0 5 C-2.3828125 5.609375 -2.3828125 5.609375 -5.125 5.75 C-6.03507812 5.80671875 -6.94515625 5.8634375 -7.8828125 5.921875 C-8.58148438 5.94765625 -9.28015625 5.9734375 -10 6 C-10 5.34 -10 4.68 -10 4 C-11.32 3.67 -12.64 3.34 -14 3 C-10.32335288 1.99039438 -6.71277008 1.62833899 -2.92578125 1.28125 C-0.99613498 1.19530138 -0.99613498 1.19530138 0 0 Z " fill="#C2B0B0" transform="translate(471,220)"/>
<path d="M0 0 C2.97 0.495 2.97 0.495 6 1 C6 3.64 6 6.28 6 9 C5.34 9 4.68 9 4 9 C4 8.34 4 7.68 4 7 C3.01 7 2.02 7 1 7 C-0.0625 4.625 -0.0625 4.625 -1 2 C-0.67 1.34 -0.34 0.68 0 0 Z " fill="#DCCBC7" transform="translate(243,596)"/>
<path d="M0 0 C0.33 1.32 0.66 2.64 1 4 C-0.75 5.125 -0.75 5.125 -3 6 C-5.25 5.125 -5.25 5.125 -7 4 C-7 3.01 -7 2.02 -7 1 C-4.53721199 -0.231394 -2.7204945 -0.07159196 0 0 Z " fill="#D3C6C3" transform="translate(592,805)"/>
<path d="M0 0 C5.28 0 10.56 0 16 0 C16 0.66 16 1.32 16 2 C14.27185839 2.19672365 12.54240803 2.38196799 10.8125 2.5625 C9.84957031 2.66691406 8.88664062 2.77132812 7.89453125 2.87890625 C5.05766623 2.99758751 2.74576329 2.67765639 0 2 C0 1.34 0 0.68 0 0 Z " fill="#8E6F6F" transform="translate(418,650)"/>
<path d="M0 0 C2 3 2 3 2 5 C2.66 5 3.32 5 4 5 C4 6.98 4 8.96 4 11 C3.01 11 2.02 11 1 11 C-1.43769218 7.34346173 -1.23944439 5.30999899 -1 1 C-0.67 0.67 -0.34 0.34 0 0 Z " fill="#E0C9C3" transform="translate(233,545)"/>
<path d="M0 0 C0.99 0.33 1.98 0.66 3 1 C3.042721 2.66611905 3.04063832 4.33382885 3 6 C2 7 2 7 -0.5625 7.0625 C-1.7690625 7.0315625 -1.7690625 7.0315625 -3 7 C-3.1875 4.625 -3.1875 4.625 -3 2 C-2.01 1.34 -1.02 0.68 0 0 Z " fill="#E2CEBF" transform="translate(392,462)"/>
<path d="M0 0 C2.475 0.495 2.475 0.495 5 1 C5.12375 1.639375 5.2475 2.27875 5.375 2.9375 C5.684375 3.9584375 5.684375 3.9584375 6 5 C6.66 5.33 7.32 5.66 8 6 C7.67 7.32 7.34 8.64 7 10 C6.01 9.67 5.02 9.34 4 9 C4 7.68 4 6.36 4 5 C2.68 4.34 1.36 3.68 0 3 C0 2.01 0 1.02 0 0 Z " fill="#D4CDC7" transform="translate(599,373)"/>
<path d="M0 0 C-0.66 1.65 -1.32 3.3 -2 5 C-2.99 5 -3.98 5 -5 5 C-5 5.99 -5 6.98 -5 8 C-5.66 8 -6.32 8 -7 8 C-7.33 8.66 -7.66 9.32 -8 10 C-8.19990835 6.40164967 -7.96808719 4.06146896 -6 1 C-4 0 -4 0 0 0 Z " fill="#E8D7D1" transform="translate(769,697)"/>
<path d="M0 0 C0.99 0 1.98 0 3 0 C2.67 3.96 2.34 7.92 2 12 C1.01 12.33 0.02 12.66 -1 13 C-1.07654536 8.48382401 -1.10228696 4.40914783 0 0 Z " fill="#C49C98" transform="translate(383,503)"/>
<path d="M0 0 C0 1.32 0 2.64 0 4 C-0.66 4 -1.32 4 -2 4 C-2 4.99 -2 5.98 -2 7 C-2.66 7 -3.32 7 -4 7 C-4.33 7.66 -4.66 8.32 -5 9 C-6.35439668 6.29120665 -6.06501451 3.99066732 -6 1 C-3 0 -3 0 0 0 Z " fill="#CEB5B0" transform="translate(400,450)"/>
<path d="M0 0 C5.94 1.485 5.94 1.485 12 3 C12 4.32 12 5.64 12 7 C7.0682659 6.55166054 3.6807076 4.13973905 0 1 C0 0.67 0 0.34 0 0 Z " fill="#D9C1B8" transform="translate(493,277)"/>
<path d="M0 0 C0.78375 0.04125 1.5675 0.0825 2.375 0.125 C2.375 0.785 2.375 1.445 2.375 2.125 C1.715 2.125 1.055 2.125 0.375 2.125 C0.045 3.775 -0.285 5.425 -0.625 7.125 C-1.945 7.125 -3.265 7.125 -4.625 7.125 C-4.75 4.75 -4.75 4.75 -4.625 2.125 C-2.625 0.125 -2.625 0.125 0 0 Z " fill="#B79A9A" transform="translate(402.625,776.875)"/>
<path d="M0 0 C0.66 0 1.32 0 2 0 C2.8125 1.6875 2.8125 1.6875 3 4 C0.75 6.75 0.75 6.75 -2 9 C-2.99 9 -3.98 9 -5 9 C-5 9.66 -5 10.32 -5 11 C-5.66 10.67 -6.32 10.34 -7 10 C-5.625 8 -5.625 8 -4 6 C-3.34 6 -2.68 6 -2 6 C-1.34 4.02 -0.68 2.04 0 0 Z " fill="#A79291" transform="translate(582,679)"/>
<path d="M0 0 C1.32 0 2.64 0 4 0 C4 0.99 4 1.98 4 3 C4.66 3 5.32 3 6 3 C6 3.99 6 4.98 6 6 C6.99 6.33 7.98 6.66 9 7 C9 7.99 9 8.98 9 10 C7.68 9.34 6.36 8.68 5 8 C5 7.34 5 6.68 5 6 C4.34 6 3.68 6 3 6 C3 5.01 3 4.02 3 3 C2.01 3 1.02 3 0 3 C0 2.01 0 1.02 0 0 Z " fill="#E4D7D3" transform="translate(618,409)"/>
<path d="M0 0 C-1.1875 2 -1.1875 2 -3 4 C-5.6875 4.25 -5.6875 4.25 -8 4 C-8 4.66 -8 5.32 -8 6 C-9.32 6 -10.64 6 -12 6 C-12 5.34 -12 4.68 -12 4 C-11.01 4 -10.02 4 -9 4 C-9 3.34 -9 2.68 -9 2 C-3.375 -1.125 -3.375 -1.125 0 0 Z " fill="#AE7575" transform="translate(417,238)"/>
<path d="M0 0 C0.99 0 1.98 0 3 0 C3 0.99 3 1.98 3 3 C4.32 3 5.64 3 7 3 C8.75 5.5 8.75 5.5 10 8 C9.01 8.495 9.01 8.495 8 9 C7.01 8.67 6.02 8.34 5 8 C5 7.01 5 6.02 5 5 C4.01 5 3.02 5 2 5 C2 4.34 2 3.68 2 3 C1.34 3 0.68 3 0 3 C0 2.01 0 1.02 0 0 Z " fill="#D3C3BD" transform="translate(744,306)"/>
<path d="M0 0 C2.31 0 4.62 0 7 0 C7 0.66 7 1.32 7 2 C8.65 2 10.3 2 12 2 C12 2.99 12 3.98 12 5 C10.68 5 9.36 5 8 5 C8 4.34 8 3.68 8 3 C7.05125 3.020625 6.1025 3.04125 5.125 3.0625 C2 3 2 3 0 2 C0 1.34 0 0.68 0 0 Z " fill="#DFC7C3" transform="translate(480,271)"/>
<path d="M0 0 C0.99 0.33 1.98 0.66 3 1 C2.34 2.32 1.68 3.64 1 5 C-2.3 5 -5.6 5 -9 5 C-5.86507773 1.86507773 -5.10100035 1.64752637 -1 1 C-0.67 0.67 -0.34 0.34 0 0 Z " fill="#8D6262" transform="translate(429,772)"/>
<path d="M0 0 C0.99 0 1.98 0 3 0 C3 0.66 3 1.32 3 2 C3.66 2 4.32 2 5 2 C4.34 4.31 3.68 6.62 3 9 C2.01 9 1.02 9 0 9 C0 6.03 0 3.06 0 0 Z " fill="#ECC5C1" transform="translate(237,568)"/>
<path d="M0 0 C2.475 0.495 2.475 0.495 5 1 C5 2.32 5 3.64 5 5 C5.99 5 6.98 5 8 5 C7.67 6.32 7.34 7.64 7 9 C6.01 9 5.02 9 4 9 C4 7.35 4 5.7 4 4 C2.68 3.67 1.36 3.34 0 3 C0 2.01 0 1.02 0 0 Z " fill="#EDE2DD" transform="translate(609,391)"/>
<path d="M0 0 C1 3 1 3 0 6 C-1.32 6 -2.64 6 -4 6 C-4 5.34 -4 4.68 -4 4 C-5.32 4 -6.64 4 -8 4 C-8 3.34 -8 2.68 -8 2 C-5.36 1.34 -2.72 0.68 0 0 Z " fill="#C3B4B3" transform="translate(454,257)"/>
<path d="M0 0 C1.98 0 3.96 0 6 0 C6 0.66 6 1.32 6 2 C7.32 2.33 8.64 2.66 10 3 C10 3.66 10 4.32 10 5 C8.35 5 6.7 5 5 5 C5 4.34 5 3.68 5 3 C3.35 3 1.7 3 0 3 C0 2.01 0 1.02 0 0 Z " fill="#DCAFA3" transform="translate(671,252)"/>
<path d="M0 0 C1.65 0 3.3 0 5 0 C4.67 2.31 4.34 4.62 4 7 C2.35 6.67 0.7 6.34 -1 6 C-0.67 4.02 -0.34 2.04 0 0 Z " fill="#F7EAE9" transform="translate(403,244)"/>
<path d="M0 0 C0.33 0.99 0.66 1.98 1 3 C0.67 3.33 0.34 3.66 0 4 C-1.85772162 3.91015699 -3.71247985 3.75388139 -5.5625 3.5625 C-7.08037109 3.40974609 -7.08037109 3.40974609 -8.62890625 3.25390625 C-9.41136719 3.17011719 -10.19382812 3.08632813 -11 3 C-11 2.34 -11 1.68 -11 1 C-5.555 0.505 -5.555 0.505 0 0 Z " fill="#CFAAA7" transform="translate(445,771)"/>
<path d="M0 0 C0.598125 0.20625 1.19625 0.4125 1.8125 0.625 C0.3275 3.1 0.3275 3.1 -1.1875 5.625 C-2.8375 5.295 -4.4875 4.965 -6.1875 4.625 C-5.03076352 1.15479057 -3.91311293 -0.67081936 0 0 Z " fill="#CABBAC" transform="translate(453.1875,767.375)"/>
<path d="M0 0 C3.23087421 0.55704728 5.02361137 1.33187535 7 4 C7 5.32 7 6.64 7 8 C5.35 7.67 3.7 7.34 2 7 C1.34 4.69 0.68 2.38 0 0 Z " fill="#9B7564" transform="translate(440,642)"/>
<path d="M0 0 C2.475 0.495 2.475 0.495 5 1 C5 1.66 5 2.32 5 3 C6.65 3.33 8.3 3.66 10 4 C10 4.66 10 5.32 10 6 C9.01 6 8.02 6 7 6 C7 5.34 7 4.68 7 4 C5.02 4.33 3.04 4.66 1 5 C0.67 3.35 0.34 1.7 0 0 Z " fill="#E2CCCC" transform="translate(695,266)"/>
<path d="M0 0 C0 2.64 0 5.28 0 8 C-0.99 8 -1.98 8 -3 8 C-3.33 8.66 -3.66 9.32 -4 10 C-4.625 8.125 -4.625 8.125 -5 6 C-4.34 5.34 -3.68 4.68 -3 4 C-3 3.01 -3 2.02 -3 1 C-1 0 -1 0 0 0 Z " fill="#A78F8E" transform="translate(621,613)"/>
<path d="M0 0 C0.66 0.33 1.32 0.66 2 1 C1.2884375 2.0828125 1.2884375 2.0828125 0.5625 3.1875 C-0.94152903 5.89475226 -1.56599182 7.96194275 -2 11 C-3.32 11 -4.64 11 -6 11 C-6 10.01 -6 9.02 -6 8 C-5.01 8 -4.02 8 -3 8 C-3 6.35 -3 4.7 -3 3 C-2.01 3 -1.02 3 0 3 C0 2.01 0 1.02 0 0 Z " fill="#FBF0ED" transform="translate(265,383)"/>
<path d="M0 0 C1.485 0.99 1.485 0.99 3 2 C3 2.99 3 3.98 3 5 C3.66 5 4.32 5 5 5 C5 6.65 5 8.3 5 10 C4.01 10 3.02 10 2 10 C2 8.68 2 7.36 2 6 C1.34 6 0.68 6 0 6 C0 4.02 0 2.04 0 0 Z " fill="#BDA8A7" transform="translate(796,376)"/>
<path d="M0 0 C0.99 0 1.98 0 3 0 C3 0.66 3 1.32 3 2 C3.969375 2.12375 4.93875 2.2475 5.9375 2.375 C7.4534375 2.684375 7.4534375 2.684375 9 3 C9.33 3.66 9.66 4.32 10 5 C7.36 5 4.72 5 2 5 C2 4.34 2 3.68 2 3 C1.01 3 0.02 3 -1 3 C-0.67 2.01 -0.34 1.02 0 0 Z " fill="#D8A4A4" transform="translate(644,237)"/>
<path d="M0 0 C1.65 0 3.3 0 5 0 C5 2 5 2 3.375 3.6875 C0.22166664 5.43013159 -1.58419039 4.8539524 -5 4 C-5 3.34 -5 2.68 -5 2 C-3.35 2 -1.7 2 0 2 C0 1.34 0 0.68 0 0 Z " fill="#BEA4A2" transform="translate(472,760)"/>
<path d="M0 0 C1.32 0 2.64 0 4 0 C3.67 1.32 3.34 2.64 3 4 C1.329375 4.2165625 1.329375 4.2165625 -0.375 4.4375 C-3.82142047 4.78372035 -3.82142047 4.78372035 -6 6 C-6 5.01 -6 4.02 -6 3 C-4.02 3 -2.04 3 0 3 C0 2.01 0 1.02 0 0 Z M-10 6 C-6 7 -6 7 -6 7 Z " fill="#F5E8E5" transform="translate(457,224)"/>
<path d="M0 0 C0.66 0.33 1.32 0.66 2 1 C2 1.99 2 2.98 2 4 C1.34 4 0.68 4 0 4 C0 4.99 0 5.98 0 7 C-1.65 7 -3.3 7 -5 7 C-5 6.34 -5 5.68 -5 5 C-4.34 5 -3.68 5 -3 5 C-3 4.01 -3 3.02 -3 2 C-2.01 1.34 -1.02 0.68 0 0 Z " fill="#BBB2AA" transform="translate(562,701)"/>
<path d="M0 0 C0.33 0 0.66 0 1 0 C2.125 5.75 2.125 5.75 1 8 C0.34 8 -0.32 8 -1 8 C-1 9.65 -1 11.3 -1 13 C-1.33 13 -1.66 13 -2 13 C-2.05391993 11.20866022 -2.09275571 9.41686101 -2.125 7.625 C-2.14820313 6.62726563 -2.17140625 5.62953125 -2.1953125 4.6015625 C-2 2 -2 2 0 0 Z " fill="#F5E7DD" transform="translate(384,495)"/>
<path d="M0 0 C0.66 0 1.32 0 2 0 C2.17835515 4.54805635 1.99785435 7.8794254 0 12 C-0.66 12 -1.32 12 -2 12 C-2 10.02 -2 8.04 -2 6 C-1.34 6 -0.68 6 0 6 C0 4.02 0 2.04 0 0 Z " fill="#B3A3A1" transform="translate(390,469)"/>
<path d="M0 0 C0.66 0.33 1.32 0.66 2 1 C1.67 1.99 1.34 2.98 1 4 C-0.98 4 -2.96 4 -5 4 C-5.33 4.66 -5.66 5.32 -6 6 C-6.99 6 -7.98 6 -9 6 C-8.67 4.68 -8.34 3.36 -8 2 C-6.865625 1.855625 -5.73125 1.71125 -4.5625 1.5625 C-1.19222799 1.38828522 -1.19222799 1.38828522 0 0 Z " fill="#995656" transform="translate(439,228)"/>
<path d="M0 0 C0.99 0.33 1.98 0.66 3 1 C3 1.99 3 2.98 3 4 C2.38125 4.103125 1.7625 4.20625 1.125 4.3125 C-1.36526484 4.87525373 -1.36526484 4.87525373 -3 8 C-3.99 8 -4.98 8 -6 8 C-6 7.01 -6 6.02 -6 5 C-4.02 4.34 -2.04 3.68 0 3 C0 2.01 0 1.02 0 0 Z " fill="#EBDEDD" transform="translate(667,778)"/>
<path d="M0 0 C0.99 0 1.98 0 3 0 C3.33 1.32 3.66 2.64 4 4 C0.25 7 0.25 7 -2 7 C-2 5.68 -2 4.36 -2 3 C-1.34 3 -0.68 3 0 3 C0 2.01 0 1.02 0 0 Z " fill="#E0D4CF" transform="translate(549,713)"/>
<path d="M0 0 C0.99 0.33 1.98 0.66 3 1 C2.75 2.875 2.75 2.875 2 5 C-0.0625 6.25 -0.0625 6.25 -2 7 C-2.33 5.68 -2.66 4.36 -3 3 C-2.01 2.67 -1.02 2.34 0 2 C0 1.34 0 0.68 0 0 Z " fill="#BFB8B7" transform="translate(616,624)"/>
<path d="M0 0 C0.99 0 1.98 0 3 0 C3 0.99 3 1.98 3 3 C2.01 3 1.02 3 0 3 C0 3.66 0 4.32 0 5 C-1.65 5 -3.3 5 -5 5 C-5 4.01 -5 3.02 -5 2 C-3.35 2 -1.7 2 0 2 C0 1.34 0 0.68 0 0 Z " fill="#EBDFD7" transform="translate(507,745)"/>
<path d="M0 0 C0.66 0.66 1.32 1.32 2 2 C1.01 2.33 0.02 2.66 -1 3 C-1.35412344 4.32796291 -1.68521554 5.66216607 -2 7 C-3.4375 8.75 -3.4375 8.75 -5 10 C-5.66 10 -6.32 10 -7 10 C-7 9.01 -7 8.02 -7 7 C-6.34 7 -5.68 7 -5 7 C-5 6.34 -5 5.68 -5 5 C-4.01 5 -3.02 5 -2 5 C-2 4.01 -2 3.02 -2 2 C-1.34 2 -0.68 2 0 2 C0 1.34 0 0.68 0 0 Z " fill="#F4EEEB" transform="translate(569,698)"/>
<path d="M0 0 C0.99 0.33 1.98 0.66 3 1 C3 1.66 3 2.32 3 3 C3.66 3 4.32 3 5 3 C4.67 4.32 4.34 5.64 4 7 C2.68 6.34 1.36 5.68 0 5 C0 3.35 0 1.7 0 0 Z " fill="#C2A8A4" transform="translate(412,606)"/>
<path d="M0 0 C0.99 0 1.98 0 3 0 C3 1.65 3 3.3 3 5 C2.01 5 1.02 5 0 5 C0 5.66 0 6.32 0 7 C-0.66 7 -1.32 7 -2 7 C-1.125 2.25 -1.125 2.25 0 0 Z " fill="#D8BCB8" transform="translate(234,475)"/>
<path d="M0 0 C0.99 0 1.98 0 3 0 C3 2.64 3 5.28 3 8 C2.01 8 1.02 8 0 8 C0 5.36 0 2.72 0 0 Z " fill="#C9A3A3" transform="translate(259,383)"/>
<path d="M0 0 C0.99 0 1.98 0 3 0 C3 0.66 3 1.32 3 2 C3.66 2 4.32 2 5 2 C5 3.98 5 5.96 5 8 C4.01 7.67 3.02 7.34 2 7 C2 5.68 2 4.36 2 3 C1.34 3 0.68 3 0 3 C0 2.01 0 1.02 0 0 Z " fill="#CABDB3" transform="translate(564,328)"/>
<path d="M0 0 C1.67542976 0.28604898 3.34385343 0.61781233 5 1 C4.67 2.65 4.34 4.3 4 6 C3.01 5.67 2.02 5.34 1 5 C1 4.01 1 3.02 1 2 C0.34 1.67 -0.32 1.34 -1 1 C-0.67 0.67 -0.34 0.34 0 0 Z " fill="#E2AAA7" transform="translate(588,220)"/>
<path d="M0 0 C0.99 0.33 1.98 0.66 3 1 C2.34 2.32 1.68 3.64 1 5 C0.34 5 -0.32 5 -1 5 C-1 5.66 -1 6.32 -1 7 C-1.99 7.33 -2.98 7.66 -4 8 C-4 7.01 -4 6.02 -4 5 C-3.34 5 -2.68 5 -2 5 C-2 3.68 -2 2.36 -2 1 C-1.34 0.67 -0.68 0.34 0 0 Z " fill="#9D8C8C" transform="translate(758,707)"/>
<path d="M0 0 C1.98 0.66 3.96 1.32 6 2 C5.6875 3.9375 5.6875 3.9375 5 6 C4.01 6.33 3.02 6.66 2 7 C2 5.68 2 4.36 2 3 C1.34 3 0.68 3 0 3 C0 2.01 0 1.02 0 0 Z " fill="#EBCCCC" transform="translate(714,279)"/>
<path d="M0 0 C0.99 0 1.98 0 3 0 C3 3 3 3 1.75 4.6875 C0 6 0 6 -4 6 C-4 5.01 -4 4.02 -4 3 C-2.68 3 -1.36 3 0 3 C0 2.01 0 1.02 0 0 Z " fill="#B69A97" transform="translate(647,788)"/>
<path d="M0 0 C0.33 0.99 0.66 1.98 1 3 C0.34 3 -0.32 3 -1 3 C-1 3.99 -1 4.98 -1 6 C-2.98 6 -4.96 6 -7 6 C-6.67 5.01 -6.34 4.02 -6 3 C-3.5 1.875 -3.5 1.875 -1 1 C-0.67 0.67 -0.34 0.34 0 0 Z " fill="#D8A199" transform="translate(526,732)"/>
<path d="M0 0 C1.32 0 2.64 0 4 0 C4.33 1.98 4.66 3.96 5 6 C4.01 6 3.02 6 2 6 C2 5.01 2 4.02 2 3 C1.34 3 0.68 3 0 3 C0 2.01 0 1.02 0 0 Z " fill="#F4D5D3" transform="translate(240,587)"/>
<path d="M0 0 C0.99 0.495 0.99 0.495 2 1 C3.425 8.3625 3.425 8.3625 1 12 C0 11 0 11 -0.09765625 8.49609375 C-0.08605469 7.48675781 -0.07445312 6.47742188 -0.0625 5.4375 C-0.05347656 4.42558594 -0.04445313 3.41367187 -0.03515625 2.37109375 C-0.02355469 1.58863281 -0.01195312 0.80617188 0 0 Z " fill="#9A8D7C" transform="translate(385,489)"/>
<path d="M0 0 C1.98 0 3.96 0 6 0 C6 0.66 6 1.32 6 2 C6.66 2 7.32 2 8 2 C8 2.99 8 3.98 8 5 C7.236875 4.690625 6.47375 4.38125 5.6875 4.0625 C3.81210323 3.32106407 1.91315348 2.63771783 0 2 C0 1.34 0 0.68 0 0 Z " fill="#E1B6AD" transform="translate(509,286)"/>
<path d="M0 0 C1.32 0 2.64 0 4 0 C4 0.99 4 1.98 4 3 C1 5 1 5 -1.1875 4.625 C-1.785625 4.41875 -2.38375 4.2125 -3 4 C-1.75 2 -1.75 2 0 0 Z " fill="#E5B9B7" transform="translate(626,796)"/>
<path d="M0 0 C1.65 0 3.3 0 5 0 C4.25 1.9375 4.25 1.9375 3 4 C0.875 4.75 0.875 4.75 -1 5 C-0.67 3.35 -0.34 1.7 0 0 Z " fill="#BE9595" transform="translate(652,786)"/>
<path d="M0 0 C0.99 0.66 1.98 1.32 3 2 C3 2.99 3 3.98 3 5 C0.36 5 -2.28 5 -5 5 C-3.35 3.35 -1.7 1.7 0 0 Z " fill="#FCEDE8" transform="translate(657,781)"/>
<path d="M0 0 C0.66 0 1.32 0 2 0 C2.66 1.98 3.32 3.96 4 6 C2.35 6.33 0.7 6.66 -1 7 C-0.67 4.69 -0.34 2.38 0 0 Z " fill="#F4BAB7" transform="translate(696,758)"/>
<path d="M0 0 C2.3125 0.1875 2.3125 0.1875 4 1 C2.02 1.99 2.02 1.99 0 3 C0 3.66 0 4.32 0 5 C-1.65 5 -3.3 5 -5 5 C-2.75 2.4375 -2.75 2.4375 0 0 Z " fill="#CEA2A0" transform="translate(495,750)"/>
<path d="M0 0 C0.99 0 1.98 0 3 0 C3 1.65 3 3.3 3 5 C1.35 5 -0.3 5 -2 5 C-2 4.01 -2 3.02 -2 2 C-1.34 2 -0.68 2 0 2 C0 1.34 0 0.68 0 0 Z " fill="#E2C2C3" transform="translate(736,729)"/>
<path d="M0 0 C0 0.99 0 1.98 0 3 C-0.66 3 -1.32 3 -2 3 C-2 3.99 -2 4.98 -2 6 C-3.32 5.67 -4.64 5.34 -6 5 C-6 3 -6 3 -4.6875 1.375 C-3 0 -3 0 0 0 Z " fill="#DED2CA" transform="translate(569,697)"/>
<path d="M0 0 C0.33 1.32 0.66 2.64 1 4 C0.01 4.33 -0.98 4.66 -2 5 C-2.33 5.99 -2.66 6.98 -3 8 C-3.33 6.35 -3.66 4.7 -4 3 C-3.34 3 -2.68 3 -2 3 C-2 2.34 -2 1.68 -2 1 C-1.34 0.67 -0.68 0.34 0 0 Z " fill="#BDA8A4" transform="translate(593,665)"/>
<path d="M0 0 C0.66 0 1.32 0 2 0 C5 5.75 5 5.75 5 8 C4.01 8.33 3.02 8.66 2 9 C2 7.68 2 6.36 2 5 C1.34 5 0.68 5 0 5 C0 3.35 0 1.7 0 0 Z " fill="#B08780" transform="translate(427,626)"/>
<path d="M0 0 C0.99 0 1.98 0 3 0 C3 1.32 3 2.64 3 4 C2.34 4 1.68 4 1 4 C1 4.99 1 5.98 1 7 C0.01 7.33 -0.98 7.66 -2 8 C-1.33333333 5.33333333 -0.66666667 2.66666667 0 0 Z " fill="#E4D4CD" transform="translate(409,423)"/>
<path d="M0 0 C0.66 0.33 1.32 0.66 2 1 C2 2.98 2 4.96 2 7 C1.01 7 0.02 7 -1 7 C-1 7.99 -1 8.98 -1 10 C-1.66 9.67 -2.32 9.34 -3 9 C-2 6 -1 3 0 0 Z " fill="#B78181" transform="translate(250,408)"/>
<path d="M0 0 C0.99 0 1.98 0 3 0 C2.3001048 3.14952839 1.34839851 6.0652503 0 9 C-0.99 9.495 -0.99 9.495 -2 10 C-1.34 6.7 -0.68 3.4 0 0 Z " fill="#FBEFEE" transform="translate(254,403)"/>
<path d="M0 0 C2.64 0 5.28 0 8 0 C8 0.66 8 1.32 8 2 C5.36 2.33 2.72 2.66 0 3 C0 2.01 0 1.02 0 0 Z " fill="#888080" transform="translate(410,251)"/>
<path d="M0 0 C2.31 0 4.62 0 7 0 C7 0.66 7 1.32 7 2 C4.03 2.66 1.06 3.32 -2 4 C-1.34 2.68 -0.68 1.36 0 0 Z " fill="#A48F71" transform="translate(458,765)"/>
<path d="M0 0 C0 0.66 0 1.32 0 2 C-0.66 2 -1.32 2 -2 2 C-2.33 2.99 -2.66 3.98 -3 5 C-4.32 5 -5.64 5 -7 5 C-5.64703851 0.94111554 -4.27479763 0 0 0 Z " fill="#DDA69B" transform="translate(517,740)"/>
<path d="M0 0 C2.09749995 2.35968744 2.96905704 3.54616994 3.1875 6.75 C3.0946875 7.86375 3.0946875 7.86375 3 9 C2.01 9 1.02 9 0 9 C0 6.03 0 3.06 0 0 Z " fill="#FAE5D9" transform="translate(439,641)"/>
<path d="M0 0 C0.99 0 1.98 0 3 0 C3.33 1.98 3.66 3.96 4 6 C3.34 6 2.68 6 2 6 C2 5.34 2 4.68 2 4 C1.01 4 0.02 4 -1 4 C-0.67 2.68 -0.34 1.36 0 0 Z " fill="#D1C6C0" transform="translate(530,297)"/>
<path d="M0 0 C4.75 0.875 4.75 0.875 7 2 C7 2.66 7 3.32 7 4 C6.01 4.33 5.02 4.66 4 5 C3.34 4.67 2.68 4.34 2 4 C2 3.34 2 2.68 2 2 C1.34 2 0.68 2 0 2 C0 1.34 0 0.68 0 0 Z " fill="#D8B6B2" transform="translate(465,264)"/>
<path d="M0 0 C1.98 0 3.96 0 6 0 C6 0.99 6 1.98 6 3 C3.69 3 1.38 3 -1 3 C-0.67 2.01 -0.34 1.02 0 0 Z " fill="#A48888" transform="translate(451,224)"/>
<path d="M0 0 C2.475 0.495 2.475 0.495 5 1 C5 1.99 5 2.98 5 4 C3.35 4 1.7 4 0 4 C0 2.68 0 1.36 0 0 Z " fill="#F5D9D7" transform="translate(502,810)"/>
<path d="M0 0 C1.32 0 2.64 0 4 0 C4 1.32 4 2.64 4 4 C2.35 4 0.7 4 -1 4 C-0.67 2.68 -0.34 1.36 0 0 Z " fill="#ECCCC9" transform="translate(448,800)"/>
<path d="M0 0 C0.66 0 1.32 0 2 0 C2 0.99 2 1.98 2 3 C1.34 3 0.68 3 0 3 C0 4.98 0 6.96 0 9 C-2 7 -2 7 -2.25 4.5 C-2 2 -2 2 0 0 Z " fill="#F9F0E8" transform="translate(388,472)"/>
<path d="M0 0 C0.99 0 1.98 0 3 0 C3 0.66 3 1.32 3 2 C2.34 2 1.68 2 1 2 C0.67 3.98 0.34 5.96 0 8 C-0.66 8 -1.32 8 -2 8 C-2 6.35 -2 4.7 -2 3 C-1.34 3 -0.68 3 0 3 C0 2.01 0 1.02 0 0 Z " fill="#E5CCC7" transform="translate(249,415)"/>
<path d="M0 0 C0.99 0 1.98 0 3 0 C3 1.32 3 2.64 3 4 C1.35 4.33 -0.3 4.66 -2 5 C-2 4.01 -2 3.02 -2 2 C-1.34 2 -0.68 2 0 2 C0 1.34 0 0.68 0 0 Z " fill="#E6BFBB" transform="translate(419,410)"/>
<path d="M0 0 C2 1.8125 2 1.8125 4 4 C4 4.99 4 5.98 4 7 C3.34 7 2.68 7 2 7 C2 6.34 2 5.68 2 5 C1.01 5 0.02 5 -1 5 C-0.67 3.35 -0.34 1.7 0 0 Z " fill="#A99694" transform="translate(765,326)"/>
<path d="M0 0 C2.475 0.495 2.475 0.495 5 1 C5 2.32 5 3.64 5 5 C4.01 5 3.02 5 2 5 C2 4.34 2 3.68 2 3 C1.34 3 0.68 3 0 3 C0 2.01 0 1.02 0 0 Z " fill="#FFF8EB" transform="translate(549,313)"/>
<path d="M0 0 C2.475 0.99 2.475 0.99 5 2 C5 3.32 5 4.64 5 6 C4.01 6 3.02 6 2 6 C2 5.01 2 4.02 2 3 C1.34 3 0.68 3 0 3 C0 2.01 0 1.02 0 0 Z " fill="#DDD5D5" transform="translate(687,259)"/>
<path d="M0 0 C2.33333333 0 4.66666667 0 7 0 C7.33 0.99 7.66 1.98 8 3 C5.36 3 2.72 3 0 3 C0 2.01 0 1.02 0 0 Z " fill="#BD9086" transform="translate(603,224)"/>
<path d="M0 0 C1.98 0 3.96 0 6 0 C6 0.99 6 1.98 6 3 C4.02 3 2.04 3 0 3 C0 2.01 0 1.02 0 0 Z " fill="#D6BFB8" transform="translate(555,217)"/>
<path d="M0 0 C0.598125 0.350625 1.19625 0.70125 1.8125 1.0625 C1.8125 1.7225 1.8125 2.3825 1.8125 3.0625 C0.1625 3.0625 -1.4875 3.0625 -3.1875 3.0625 C-3.1875 2.4025 -3.1875 1.7425 -3.1875 1.0625 C-3.8475 0.7325 -4.5075 0.4025 -5.1875 0.0625 C-2.1875 -0.9375 -2.1875 -0.9375 0 0 Z " fill="#E4C5C4" transform="translate(579.1875,807.9375)"/>
<path d="M0 0 C2.31 0 4.62 0 7 0 C2.25 3.875 2.25 3.875 0 5 C0 3.35 0 1.7 0 0 Z " fill="#F9E9E5" transform="translate(403,779)"/>
<path d="M0 0 C1.32 0.33 2.64 0.66 4 1 C3.67 1.66 3.34 2.32 3 3 C2.34 3 1.68 3 1 3 C1 3.66 1 4.32 1 5 C0.01 5 -0.98 5 -2 5 C-2 4.01 -2 3.02 -2 2 C-1.34 2 -0.68 2 0 2 C0 1.34 0 0.68 0 0 Z " fill="#D8B9B9" transform="translate(773,687)"/>
<path d="M0 0 C0.66 0 1.32 0 2 0 C2 1.32 2 2.64 2 4 C1.34 4 0.68 4 0 4 C0 4.66 0 5.32 0 6 C-0.99 6 -1.98 6 -3 6 C-1.125 1.125 -1.125 1.125 0 0 Z " fill="#DFBEBD" transform="translate(245,427)"/>
<path d="M0 0 C1.65 0 3.3 0 5 0 C4.67 1.65 4.34 3.3 4 5 C3.67 4.34 3.34 3.68 3 3 C2.01 3 1.02 3 0 3 C0 2.01 0 1.02 0 0 Z " fill="#D6BFB8" transform="translate(522,293)"/>
<path d="M0 0 C1.65 0 3.3 0 5 0 C5 0.66 5 1.32 5 2 C5.99 2.33 6.98 2.66 8 3 C5.36 3 2.72 3 0 3 C0 2.01 0 1.02 0 0 Z " fill="#FAEDE3" transform="translate(477,268)"/>
<path d="M0 0 C1.98 0 3.96 0 6 0 C6.33 0.99 6.66 1.98 7 3 C4.69 3 2.38 3 0 3 C0 2.01 0 1.02 0 0 Z " fill="#C89593" transform="translate(620,229)"/>
<path d="M0 0 C2.475 0.495 2.475 0.495 5 1 C4.67 2.32 4.34 3.64 4 5 C4.99 5.33 5.98 5.66 7 6 C5.68 6 4.36 6 3 6 C3 5.01 3 4.02 3 3 C2.01 2.67 1.02 2.34 0 2 C0 1.34 0 0.68 0 0 Z " fill="#EBE5E4" transform="translate(616,227)"/>
<path d="M0 0 C0.33 0.66 0.66 1.32 1 2 C1.66 2.33 2.32 2.66 3 3 C1 5 1 5 -1.625 5.125 C-2.40875 5.08375 -3.1925 5.0425 -4 5 C-3.34 4.01 -2.68 3.02 -2 2 C-1.34 2 -0.68 2 0 2 C0 1.34 0 0.68 0 0 Z " fill="#D8CEC9" transform="translate(536,725)"/>
<path d="M0 0 C0.99 0 1.98 0 3 0 C3 0.99 3 1.98 3 3 C2.34 3 1.68 3 1 3 C0.67 3.99 0.34 4.98 0 6 C-0.66 6 -1.32 6 -2 6 C-2 5.01 -2 4.02 -2 3 C-1.34 3 -0.68 3 0 3 C0 2.01 0 1.02 0 0 Z " fill="#CFAFB1" transform="translate(751,714)"/>
<path d="M0 0 C0.99 0 1.98 0 3 0 C2.34 1.65 1.68 3.3 1 5 C0.01 5 -0.98 5 -2 5 C-2 4.01 -2 3.02 -2 2 C-1.34 2 -0.68 2 0 2 C0 1.34 0 0.68 0 0 Z " fill="#F0F0F0" transform="translate(401,416)"/>
<path d="M0 0 C0.33 0 0.66 0 1 0 C1 2.31 1 4.62 1 7 C0.01 7 -0.98 7 -2 7 C-1.125 1.125 -1.125 1.125 0 0 Z " fill="#EC8BA7" transform="translate(256,396)"/>
<path d="M0 0 C0.99 0 1.98 0 3 0 C3 0.99 3 1.98 3 3 C2.01 3.495 2.01 3.495 1 4 C0.34 4.99 -0.32 5.98 -1 7 C-1.33 5.68 -1.66 4.36 -2 3 C-1.34 3 -0.68 3 0 3 C0 2.01 0 1.02 0 0 Z " fill="#A79090" transform="translate(429,397)"/>
<path d="M0 0 C2.475 0.99 2.475 0.99 5 2 C5 2.99 5 3.98 5 5 C3.68 4.67 2.36 4.34 1 4 C0.67 2.68 0.34 1.36 0 0 Z " fill="#F9BBB5" transform="translate(594,365)"/>
<path d="M0 0 C1.32 0 2.64 0 4 0 C4.33 1.65 4.66 3.3 5 5 C4.01 5.495 4.01 5.495 3 6 C3 5.01 3 4.02 3 3 C2.01 3 1.02 3 0 3 C0 2.01 0 1.02 0 0 Z " fill="#CCB5B2" transform="translate(539,305)"/>
<path d="M0 0 C0.66 0 1.32 0 2 0 C2 0.66 2 1.32 2 2 C3.32 2.66 4.64 3.32 6 4 C4.02 4.33 2.04 4.66 0 5 C0 3.35 0 1.7 0 0 Z " fill="#A99990" transform="translate(657,242)"/>
</svg>
